<svg width="79" height="22" viewBox="0 0 79 22" fill="none" xmlns="http://www.w3.org/2000/svg">
<path fill-rule="evenodd" clip-rule="evenodd" d="M11.3935 0.0782535C11.1416 -0.0260847 10.8586 -0.0260844 10.6067 0.0782537L3.8989 2.8567C3.64701 2.96104 3.44688 3.16117 3.34254 3.41306L0.564093 10.1208C0.459755 10.3727 0.459755 10.6557 0.564093 10.9076L3.34254 17.6154C3.44688 17.8673 3.64701 18.0674 3.8989 18.1718L10.6067 20.9502C10.8586 21.0546 11.1416 21.0546 11.3935 20.9502L18.1012 18.1718C18.3531 18.0674 18.5533 17.8673 18.6576 17.6154L21.4361 10.9076C21.5404 10.6557 21.5404 10.3727 21.4361 10.1208L18.6576 3.41306C18.5533 3.16117 18.3531 2.96104 18.1012 2.8567L11.3935 0.0782535ZM14.5335 4.83865C14.3675 4.62235 14.1224 4.48083 13.8521 4.44525L9.5319 3.87648C9.26159 3.8409 8.9882 3.91415 8.7719 4.08013L5.31488 6.73279C5.09858 6.89876 4.95706 7.14387 4.92148 7.41419L4.35271 11.7344C4.31713 12.0047 4.39038 12.2781 4.55636 12.4944L7.20902 15.9514C7.37499 16.1677 7.6201 16.3092 7.89042 16.3448L12.2106 16.9136C12.4809 16.9492 12.7543 16.8759 12.9706 16.7099L16.4276 14.0573C16.6439 13.8913 16.7854 13.6462 16.821 13.3759L17.3898 9.05567C17.4254 8.78536 17.3521 8.51197 17.1862 8.29567L14.5335 4.83865Z" fill="url(#paint0_linear_329_8740)"/>
<path d="M35.1636 17.7557C34.1168 17.7557 33.1841 17.5678 32.3655 17.1921C31.5469 16.8029 30.849 16.2795 30.272 15.6219C29.7083 14.9509 29.2722 14.1726 28.9635 13.2869C28.6683 12.4011 28.5207 11.455 28.5207 10.4485C28.5207 9.06627 28.7824 7.83163 29.3057 6.74461C29.8425 5.64417 30.6075 4.77858 31.6006 4.14784C32.5936 3.50368 33.7813 3.1816 35.1636 3.1816C36.1969 3.1816 37.1229 3.36948 37.9415 3.74524C38.7735 4.121 39.4781 4.64438 40.0552 5.31538C40.6322 5.98638 41.0684 6.75803 41.3636 7.63033C41.6723 8.50263 41.8266 9.44203 41.8266 10.4485C41.8266 11.455 41.6723 12.4011 41.3636 13.2869C41.0684 14.1726 40.6322 14.9509 40.0552 15.6219C39.4781 16.2795 38.7803 16.8029 37.9616 17.1921C37.143 17.5678 36.2103 17.7557 35.1636 17.7557ZM35.1636 16.1051C36.1969 16.1051 37.0625 15.8568 37.7603 15.3603C38.4582 14.8637 38.9816 14.1927 39.3305 13.3472C39.6928 12.4884 39.874 11.5221 39.874 10.4485C39.874 9.72385 39.7666 9.02601 39.5519 8.35501C39.3372 7.68401 39.0285 7.08682 38.6259 6.56344C38.2233 6.02664 37.7268 5.60391 37.1363 5.29525C36.5592 4.98659 35.9017 4.83226 35.1636 4.83226C34.1839 4.83226 33.3384 5.08053 32.6272 5.57707C31.9293 6.07361 31.3925 6.74461 31.0168 7.59007C30.6544 8.43553 30.4733 9.38835 30.4733 10.4485C30.4733 11.1732 30.5739 11.8778 30.7752 12.5622C30.9899 13.2332 31.2986 13.8371 31.7012 14.3739C32.1038 14.9107 32.5936 15.3334 33.1707 15.6421C33.7612 15.9507 34.4255 16.1051 35.1636 16.1051ZM50.0546 17.7557C48.8333 17.7557 47.753 17.4672 46.8136 16.8901C45.8742 16.2997 45.1428 15.4676 44.6195 14.394C44.0961 13.307 43.8344 12.0187 43.8344 10.5291C43.8344 9.09311 44.0961 7.82492 44.6195 6.72448C45.1563 5.61062 45.9078 4.74503 46.874 4.12771C47.8537 3.49697 48.9944 3.1816 50.2961 3.1816C50.9671 3.1816 51.5777 3.2487 52.128 3.3829C52.6782 3.50368 53.1949 3.67814 53.678 3.90628L53.0942 5.51668C52.6782 5.31538 52.2487 5.15434 51.8059 5.03356C51.3764 4.91278 50.8665 4.85239 50.276 4.85239C49.4171 4.85239 48.6455 5.07382 47.9611 5.51668C47.2901 5.95954 46.76 6.59699 46.3708 7.42903C45.9816 8.26107 45.787 9.26757 45.787 10.4485C45.787 11.5758 45.9749 12.5622 46.3507 13.4076C46.7398 14.2531 47.2699 14.9107 47.9409 15.3804C48.6253 15.8501 49.4037 16.0849 50.276 16.0849C50.9336 16.0849 51.5039 16.0044 51.987 15.8434C52.4702 15.6823 52.9399 15.4743 53.3962 15.2193L53.9799 16.8096C53.4834 17.078 52.913 17.3062 52.2689 17.494C51.6381 17.6685 50.9 17.7557 50.0546 17.7557ZM59.3093 17.5142V5.11408H54.9814V3.42316H65.5496V5.11408H61.2217V17.5142H59.3093ZM76.0444 17.7155L74.4743 13.6895H67.9522L66.382 17.6752L64.7515 17.0109L70.2671 3.42316H72.3607L77.7958 17.0109L76.0444 17.7155ZM68.5561 12.0791H73.8503L71.2132 5.31538L68.5561 12.0791Z" fill="#2E3234"/>
<defs>
<linearGradient id="paint0_linear_329_8740" x1="3.89045" y1="-27.1414" x2="49.9759" y2="-4.10154" gradientUnits="userSpaceOnUse">
<stop stop-color="#EE147C"/>
<stop offset="0.644" stop-color="#9F66FC"/>
</linearGradient>
</defs>
</svg>