<svg width="144" height="22" viewBox="0 0 144 22" fill="none" xmlns="http://www.w3.org/2000/svg">
<path fill-rule="evenodd" clip-rule="evenodd" d="M43.8935 0.564032C43.6416 0.459694 43.3586 0.459694 43.1067 0.564033L36.3989 3.34248C36.147 3.44682 35.9469 3.64695 35.8425 3.89884L33.0641 10.6066C32.9598 10.8585 32.9598 11.1415 33.0641 11.3934L35.8425 18.1012C35.9469 18.3531 36.147 18.5532 36.3989 18.6576L43.1067 21.436C43.3586 21.5403 43.6416 21.5403 43.8935 21.436L50.6012 18.6576C50.8531 18.5532 51.0533 18.3531 51.1576 18.1012L53.9361 11.3934C54.0404 11.1415 54.0404 10.8585 53.9361 10.6066L51.1576 3.89884C51.0533 3.64695 50.8531 3.44682 50.6012 3.34248L43.8935 0.564032ZM47.0335 5.32443C46.8675 5.10813 46.6224 4.96661 46.3521 4.93103L42.0319 4.36226C41.7616 4.32667 41.4882 4.39993 41.2719 4.5659L37.8149 7.21856C37.5986 7.38454 37.4571 7.62965 37.4215 7.89997L36.8527 12.2202C36.8171 12.4905 36.8904 12.7639 37.0564 12.9802L39.709 16.4372C39.875 16.6535 40.1201 16.795 40.3904 16.8306L44.7106 17.3993C44.9809 17.4349 45.2543 17.3617 45.4706 17.1957L48.9276 14.543C49.1439 14.3771 49.2854 14.132 49.321 13.8616L49.8898 9.54145C49.9254 9.27114 49.8521 8.99775 49.6862 8.78145L47.0335 5.32443Z" fill="url(#paint0_linear_319_2244)"/>
<path d="M67.6636 18.2416C66.6168 18.2416 65.6841 18.0537 64.8655 17.6779C64.0469 17.2887 63.349 16.7654 62.772 16.1078C62.2083 15.4368 61.7722 14.6584 61.4635 13.7727C61.1683 12.887 61.0207 11.9409 61.0207 10.9344C61.0207 9.55211 61.2824 8.31747 61.8057 7.23045C62.3425 6.13001 63.1075 5.26442 64.1006 4.63368C65.0936 3.98952 66.2813 3.66744 67.6636 3.66744C68.6969 3.66744 69.6229 3.85532 70.4415 4.23108C71.2735 4.60684 71.9781 5.13022 72.5552 5.80122C73.1322 6.47222 73.5684 7.24387 73.8636 8.11617C74.1723 8.98847 74.3266 9.92787 74.3266 10.9344C74.3266 11.9409 74.1723 12.887 73.8636 13.7727C73.5684 14.6584 73.1322 15.4368 72.5552 16.1078C71.9781 16.7654 71.2803 17.2887 70.4616 17.6779C69.643 18.0537 68.7103 18.2416 67.6636 18.2416ZM67.6636 16.5909C68.6969 16.5909 69.5625 16.3426 70.2603 15.8461C70.9582 15.3495 71.4816 14.6785 71.8305 13.8331C72.1928 12.9742 72.374 12.008 72.374 10.9344C72.374 10.2097 72.2666 9.51185 72.0519 8.84085C71.8372 8.16985 71.5285 7.57266 71.1259 7.04928C70.7233 6.51248 70.2268 6.08975 69.6363 5.78109C69.0592 5.47243 68.4017 5.3181 67.6636 5.3181C66.6839 5.3181 65.8384 5.56637 65.1272 6.06291C64.4293 6.55945 63.8925 7.23045 63.5168 8.07591C63.1544 8.92137 62.9733 9.87419 62.9733 10.9344C62.9733 11.659 63.0739 12.3636 63.2752 13.048C63.4899 13.719 63.7986 14.3229 64.2012 14.8597C64.6038 15.3965 65.0936 15.8193 65.6707 16.1279C66.2612 16.4366 66.9255 16.5909 67.6636 16.5909ZM82.5546 18.2416C81.3333 18.2416 80.253 17.953 79.3136 17.376C78.3742 16.7855 77.6428 15.9535 77.1195 14.8799C76.5961 13.7928 76.3344 12.5045 76.3344 11.0149C76.3344 9.57895 76.5961 8.31076 77.1195 7.21032C77.6563 6.09646 78.4078 5.23087 79.374 4.61355C80.3537 3.98281 81.4944 3.66744 82.7961 3.66744C83.4671 3.66744 84.0777 3.73454 84.628 3.86874C85.1782 3.98952 85.6949 4.16398 86.178 4.39212L85.5942 6.00252C85.1782 5.80122 84.7487 5.64018 84.3059 5.5194C83.8764 5.39862 83.3665 5.33823 82.776 5.33823C81.9171 5.33823 81.1455 5.55966 80.4611 6.00252C79.7901 6.44538 79.26 7.08283 78.8708 7.91487C78.4816 8.74691 78.287 9.75341 78.287 10.9344C78.287 12.0616 78.4749 13.048 78.8507 13.8935C79.2398 14.7389 79.7699 15.3965 80.4409 15.8662C81.1253 16.3359 81.9037 16.5708 82.776 16.5708C83.4336 16.5708 84.0039 16.4903 84.487 16.3292C84.9702 16.1682 85.4399 15.9602 85.8962 15.7052L86.4799 17.2955C85.9834 17.5639 85.413 17.792 84.7689 17.9799C84.1381 18.1543 83.4 18.2416 82.5546 18.2416ZM91.8093 18V5.59992H87.4814V3.909H98.0496V5.59992H93.7217V18H91.8093ZM108.544 18.2013L106.974 14.1753H100.452L98.882 18.161L97.2515 17.4968L102.767 3.909H104.861L110.296 17.4968L108.544 18.2013ZM101.056 12.5649H106.35L103.713 5.80122L101.056 12.5649Z" fill="#2E3234"/>
<defs>
<linearGradient id="paint0_linear_319_2244" x1="36.3905" y1="-26.6556" x2="82.4759" y2="-3.61576" gradientUnits="userSpaceOnUse">
<stop stop-color="#EE147C"/>
<stop offset="0.644" stop-color="#9F66FC"/>
</linearGradient>
</defs>
</svg>
