<svg width="158" height="36" viewBox="0 0 158 36" fill="none" xmlns="http://www.w3.org/2000/svg">
<path fill-rule="evenodd" clip-rule="evenodd" d="M17.946 0.0782534C17.6942 -0.0260847 17.4111 -0.0260843 17.1592 0.0782538L5.47456 4.9182C5.22267 5.02254 5.02254 5.22267 4.9182 5.47456L0.0782534 17.1592C-0.0260847 17.4111 -0.0260843 17.6942 0.0782538 17.9461L4.9182 29.6307C5.02254 29.8826 5.22267 30.0827 5.47457 30.1871L17.1592 35.027C17.4111 35.1314 17.6942 35.1314 17.946 35.027L29.6307 30.1871C29.8826 30.0827 30.0827 29.8826 30.1871 29.6307L35.027 17.9461C35.1314 17.6942 35.1314 17.4111 35.027 17.1592L30.1871 5.47456C30.0827 5.22267 29.8826 5.02254 29.6307 4.9182L17.946 0.0782534ZM23.2639 7.88347C23.0979 7.66716 22.8528 7.52565 22.5825 7.49006L14.8327 6.46978C14.5624 6.4342 14.289 6.50745 14.0727 6.67343L7.87133 11.4319C7.65502 11.5979 7.51351 11.843 7.47792 12.1133L6.45764 19.8631C6.42205 20.1334 6.49531 20.4068 6.66128 20.6231L11.4198 26.8245C11.5857 27.0408 11.8309 27.1823 12.1012 27.2179L19.851 28.2382C20.1213 28.2738 20.3947 28.2005 20.611 28.0345L26.8124 23.2761C27.0287 23.1101 27.1702 22.865 27.2058 22.5947L28.226 14.8449C28.2616 14.5745 28.1884 14.3012 28.0224 14.0849L23.2639 7.88347Z" fill="url(#paint0_linear_250_1429)"/>
<path d="M57.2917 4.25582C64.5899 4.25582 72.3579 7.76043 72.3579 17.4071C72.3579 27.09 64.5899 30.5946 57.2917 30.5946C49.9934 30.5946 42.1894 27.09 42.1894 17.4071C42.1894 7.76043 49.9934 4.25582 57.2917 4.25582ZM57.2917 26.1867C63.5783 26.1867 66.4326 22.3931 66.4326 17.4071C66.4326 12.4573 63.5783 8.66368 57.2917 8.66368C51.0051 8.66368 48.1508 12.4573 48.1508 17.4071C48.1508 22.3931 51.0051 26.1867 57.2917 26.1867ZM88.8885 26.1867C94.1273 26.1867 96.259 23.3324 97.0177 20.0446H103.051C101.859 27.5596 95.4641 30.5946 88.8885 30.5946C81.5902 30.5946 74.5087 26.9093 74.5087 17.4071C74.5087 7.90495 81.5902 4.25582 88.8885 4.25582C95.4641 4.25582 101.859 7.29074 103.051 14.8058H97.0177C96.259 11.5179 94.1273 8.66368 88.8885 8.66368C82.8186 8.66368 80.4702 12.5296 80.4702 17.4071C80.4702 22.3208 82.8186 26.1867 88.8885 26.1867ZM129.465 4.76164V9.24175H119.891V30.0526H114.074V9.24175H104.499V4.76164H129.465ZM150.207 30.0526L148.076 25.1028H134.202L132.034 30.0526H125.856L137.562 4.76164H144.715L156.385 30.0526H150.207ZM136.153 20.6588H146.125L141.139 9.1695L136.153 20.6588Z" fill="#2E3234"/>
<defs>
<linearGradient id="paint0_linear_250_1429" x1="5.68371" y1="-45.3103" x2="82.6195" y2="-6.84716" gradientUnits="userSpaceOnUse">
<stop stop-color="#EE147C"/>
<stop offset="0.644" stop-color="#9F66FC"/>
</linearGradient>
</defs>
</svg>
