<svg width="133" height="119" viewBox="0 0 133 119" fill="none" xmlns="http://www.w3.org/2000/svg">
<path d="M7.8767 54.6446C7.87241 54.6446 7.86822 54.6445 7.86398 54.6442L6.55053 54.5692C6.42967 54.5622 6.33726 54.4588 6.34411 54.338C6.35116 54.2171 6.45762 54.1255 6.57556 54.1318L7.88902 54.2068C8.00987 54.2137 8.10229 54.3172 8.09544 54.438C8.08868 54.5545 7.99198 54.6446 7.8767 54.6446Z" fill="#BFC8D6"/>
<path d="M122.58 61.199C122.576 61.199 122.572 61.1989 122.567 61.1986L119.961 61.0496C119.84 61.0428 119.747 60.9393 119.754 60.8185C119.761 60.6976 119.872 60.6057 119.985 60.6123L122.593 60.7613C122.713 60.7682 122.806 60.8717 122.799 60.9925C122.792 61.1089 122.696 61.199 122.58 61.199ZM117.366 60.901C117.362 60.901 117.358 60.9009 117.354 60.9007L114.747 60.7518C114.626 60.7448 114.533 60.6413 114.54 60.5205C114.547 60.3997 114.657 60.3075 114.772 60.3143L117.379 60.4633C117.5 60.4702 117.592 60.5737 117.585 60.6945C117.578 60.811 117.482 60.901 117.366 60.901ZM112.153 60.6032C112.148 60.6032 112.144 60.6031 112.14 60.6028L109.533 60.4539C109.412 60.4469 109.32 60.3434 109.327 60.2227C109.333 60.1018 109.444 60.0101 109.558 60.0165L112.165 60.1654C112.286 60.1723 112.378 60.2758 112.371 60.3966C112.365 60.5131 112.268 60.6032 112.153 60.6032ZM106.939 60.3052C106.934 60.3052 106.93 60.3051 106.926 60.3048L104.319 60.1559C104.198 60.149 104.106 60.0455 104.113 59.9247C104.12 59.8038 104.231 59.7111 104.344 59.7185L106.951 59.8675C107.072 59.8744 107.164 59.9778 107.157 60.0986C107.151 60.2152 107.054 60.3052 106.939 60.3052ZM101.725 60.0073C101.721 60.0073 101.716 60.0072 101.712 60.007L99.1054 59.858C98.9844 59.8511 98.8919 59.7476 98.8989 59.6268C98.9058 59.5059 99.0154 59.4137 99.1302 59.4206L101.737 59.5696C101.858 59.5765 101.951 59.68 101.944 59.8008C101.937 59.9173 101.84 60.0073 101.725 60.0073ZM96.511 59.7094C96.5067 59.7094 96.5024 59.7093 96.4982 59.709L93.8914 59.56C93.7704 59.5531 93.6779 59.4496 93.685 59.3288C93.6918 59.208 93.8025 59.1155 93.9162 59.1226L96.5232 59.2716C96.6442 59.2785 96.7367 59.382 96.7296 59.5028C96.723 59.6193 96.6265 59.7094 96.511 59.7094ZM91.2973 59.4114C91.293 59.4114 91.2887 59.4113 91.2847 59.4111L88.6777 59.2621C88.5567 59.2552 88.4643 59.1517 88.4713 59.0309C88.4782 58.91 88.59 58.8181 88.7026 58.8247L91.3095 58.9737C91.4305 58.9806 91.523 59.0841 91.516 59.2049C91.5093 59.3214 91.4128 59.4114 91.2973 59.4114ZM86.0834 59.1135C86.0791 59.1135 86.0748 59.1134 86.0708 59.1131L83.464 58.9642C83.343 58.9572 83.2506 58.8537 83.2576 58.7329C83.2645 58.6121 83.3741 58.5198 83.4889 58.5268L86.0956 58.6757C86.2166 58.6827 86.3091 58.7862 86.3021 58.9069C86.2954 59.0235 86.1988 59.1135 86.0834 59.1135ZM80.8697 58.8156C80.8654 58.8156 80.8611 58.8155 80.8568 58.8152L78.2501 58.6662C78.1291 58.6593 78.0366 58.5558 78.0437 58.435C78.0505 58.3142 78.1615 58.2224 78.2749 58.2288L80.8821 58.3778C81.0028 58.3847 81.0953 58.4882 81.0883 58.609C81.0817 58.7256 80.9851 58.8156 80.8697 58.8156ZM75.6557 58.5176C75.6515 58.5176 75.6472 58.5175 75.6431 58.5172L73.0364 58.3683C72.9154 58.3614 72.8229 58.2579 72.8299 58.1371C72.8368 58.0163 72.9486 57.9243 73.0612 57.9309L75.668 58.0799C75.789 58.0868 75.8814 58.1903 75.8744 58.3111C75.8677 58.4276 75.7712 58.5176 75.6557 58.5176ZM70.442 58.2197C70.4377 58.2197 70.4335 58.2196 70.4294 58.2193L67.8222 58.0704C67.7015 58.0635 67.6089 57.96 67.616 57.8392C67.6228 57.7184 67.7269 57.626 67.8474 57.633L70.4542 57.782C70.5752 57.7889 70.6677 57.8924 70.6606 58.0131C70.654 58.1297 70.5575 58.2197 70.442 58.2197ZM65.2281 57.9218C65.2238 57.9218 65.2195 57.9217 65.2155 57.9215L62.6085 57.7725C62.4877 57.7656 62.3953 57.6621 62.4021 57.5413C62.4091 57.4204 62.5141 57.3287 62.6336 57.3351L65.2403 57.4841C65.3613 57.491 65.4538 57.5945 65.4468 57.7153C65.4401 57.8318 65.3435 57.9218 65.2281 57.9218ZM60.0144 57.6239C60.0101 57.6239 60.0059 57.6238 60.0016 57.6235L57.3947 57.4745C57.2738 57.4676 57.1814 57.3641 57.1883 57.2433C57.1952 57.1225 57.3001 57.03 57.4197 57.0372L60.0267 57.1861C60.1475 57.193 60.24 57.2965 60.2331 57.4173C60.2264 57.5338 60.1297 57.6239 60.0144 57.6239ZM54.8006 57.3259C54.7963 57.3259 54.7921 57.3258 54.7879 57.3256L52.1809 57.1766C52.0601 57.1697 51.9677 57.0662 51.9745 56.9454C51.9815 56.8246 52.0861 56.7329 52.206 56.7392L54.8129 56.8882C54.9338 56.8951 55.0262 56.9986 55.0193 57.1194C55.0126 57.2359 54.9159 57.3259 54.8006 57.3259ZM49.5868 57.028C49.5826 57.028 49.5783 57.0279 49.5741 57.0276L46.9672 56.8787C46.8463 56.8717 46.754 56.7682 46.7608 56.6474C46.7677 56.5266 46.872 56.4342 46.9923 56.4413L49.5991 56.5902C49.72 56.5972 49.8124 56.7007 49.8055 56.8215C49.7988 56.938 49.7021 57.028 49.5868 57.028ZM44.373 56.7301C44.3687 56.7301 44.3645 56.73 44.3602 56.7297L41.7534 56.5808C41.6325 56.5738 41.5401 56.4703 41.5469 56.3496C41.5539 56.2287 41.658 56.137 41.7784 56.1434L44.3853 56.2924C44.5061 56.2993 44.5985 56.4028 44.5917 56.5236C44.585 56.6401 44.4883 56.7301 44.373 56.7301ZM39.1592 56.4321C39.1549 56.4321 39.1507 56.432 39.1464 56.4317L36.5395 56.2828C36.4187 56.2759 36.3263 56.1724 36.3331 56.0516C36.3401 55.9308 36.4468 55.839 36.5646 55.8454L39.1714 55.9944C39.2923 56.0013 39.3847 56.1048 39.3779 56.2256C39.3712 56.3421 39.2745 56.4321 39.1592 56.4321ZM33.9453 56.1342C33.941 56.1342 33.9368 56.1342 33.9326 56.1339L31.3257 55.9849C31.2049 55.978 31.1125 55.8745 31.1193 55.7537C31.1264 55.6328 31.2328 55.5412 31.3508 55.5475L33.9576 55.6965C34.0785 55.7034 34.1709 55.8069 34.164 55.9277C34.1573 56.0442 34.0606 56.1342 33.9453 56.1342ZM28.7315 55.8363C28.7272 55.8363 28.723 55.8362 28.7188 55.8359L26.1119 55.6869C25.9911 55.68 25.8987 55.5765 25.9055 55.4558C25.9126 55.3349 26.0188 55.2433 26.137 55.2496L28.7438 55.3985C28.8647 55.4054 28.9571 55.5089 28.9502 55.6297C28.9435 55.7463 28.8468 55.8363 28.7315 55.8363ZM23.5177 55.5384C23.5134 55.5384 23.5092 55.5383 23.5049 55.538L20.8981 55.3891C20.7772 55.3821 20.6848 55.2787 20.6916 55.1579C20.6987 55.0371 20.8047 54.9454 20.9231 54.9517L23.53 55.1007C23.6508 55.1076 23.7432 55.2111 23.7364 55.3318C23.7297 55.4483 23.633 55.5384 23.5177 55.5384ZM18.3039 55.2404C18.2996 55.2404 18.2954 55.2404 18.2912 55.2401L15.6843 55.0911C15.5635 55.0842 15.471 54.9807 15.4779 54.8599C15.4849 54.7391 15.5907 54.6474 15.7093 54.6537L18.3162 54.8027C18.4371 54.8097 18.5295 54.9132 18.5226 55.0339C18.5159 55.1504 18.4192 55.2404 18.3039 55.2404ZM13.0901 54.9425C13.0858 54.9425 13.0816 54.9424 13.0773 54.9422L10.4704 54.7932C10.3496 54.7863 10.2572 54.6828 10.264 54.562C10.2711 54.4412 10.3766 54.3488 10.4955 54.3559L13.1023 54.5048C13.2232 54.5117 13.3156 54.6152 13.3088 54.736C13.3021 54.8525 13.2053 54.9425 13.0901 54.9425Z" fill="#BFC8D6"/>
<path d="M126.501 61.423C126.496 61.423 126.492 61.4229 126.488 61.4226L125.175 61.3476C125.054 61.3407 124.961 61.2372 124.968 61.1164C124.975 60.9956 125.085 60.9031 125.199 60.9102L126.513 60.9852C126.634 60.9922 126.726 61.0956 126.719 61.2164C126.713 61.333 126.616 61.423 126.501 61.423Z" fill="#BFC8D6"/>
<path d="M32.377 16.1482C32.365 16.1482 32.3529 16.1473 32.3406 16.1452L31.043 15.9285C30.9236 15.9086 30.843 15.7957 30.8629 15.6764C30.8829 15.5571 30.9954 15.4765 31.1153 15.4964L32.4129 15.7131C32.5323 15.733 32.6129 15.8459 32.593 15.9652C32.5752 16.0724 32.4822 16.1482 32.377 16.1482Z" fill="#BFC8D6"/>
<path d="M111.852 29.4192C111.84 29.4192 111.828 29.4182 111.815 29.4162L109.166 28.9738C109.046 28.9539 108.966 28.841 108.986 28.7217C109.006 28.6024 109.118 28.5218 109.238 28.5418L111.888 28.9842C112.007 29.0041 112.088 29.117 112.068 29.2363C112.05 29.3434 111.957 29.4192 111.852 29.4192ZM106.553 28.5345C106.541 28.5345 106.529 28.5335 106.517 28.5315L103.868 28.0891C103.748 28.0692 103.668 27.9563 103.688 27.837C103.708 27.7177 103.82 27.6372 103.94 27.6571L106.589 28.0994C106.709 28.1194 106.789 28.2323 106.769 28.3516C106.751 28.4586 106.659 28.5345 106.553 28.5345ZM101.255 27.6497C101.243 27.6497 101.231 27.6488 101.218 27.6467L98.5691 27.2044C98.4497 27.1844 98.3691 27.0715 98.389 26.9522C98.409 26.8329 98.522 26.7521 98.6415 26.7723L101.291 27.2147C101.41 27.2346 101.491 27.3475 101.471 27.4668C101.453 27.5739 101.36 27.6497 101.255 27.6497ZM95.9564 26.765C95.9444 26.765 95.9322 26.764 95.92 26.762L93.2709 26.3196C93.1514 26.2997 93.0708 26.1868 93.0908 26.0675C93.1107 25.9482 93.2239 25.8676 93.3432 25.8875L95.9923 26.3299C96.1118 26.3499 96.1924 26.4628 96.1724 26.5821C96.1545 26.6891 96.0617 26.765 95.9564 26.765ZM90.6579 25.8803C90.646 25.8803 90.6337 25.8793 90.6215 25.8773L87.9724 25.4349C87.8529 25.415 87.7724 25.3021 87.7923 25.1828C87.8124 25.0635 87.9248 24.983 88.0447 25.0028L90.6939 25.4452C90.8133 25.4651 90.8939 25.578 90.874 25.6974C90.856 25.8044 90.7633 25.8803 90.6579 25.8803ZM85.3596 24.9955C85.3476 24.9955 85.3354 24.9945 85.3232 24.9925L82.6739 24.5502C82.5544 24.5302 82.4739 24.4173 82.4938 24.298C82.5139 24.1787 82.6268 24.0982 82.7462 24.1181L85.3956 24.5605C85.515 24.5804 85.5956 24.6933 85.5757 24.8126C85.5577 24.9196 85.465 24.9955 85.3596 24.9955ZM80.0611 24.1108C80.0491 24.1108 80.0369 24.1098 80.0247 24.1078L77.3755 23.6655C77.2561 23.6455 77.1755 23.5326 77.1954 23.4133C77.2154 23.294 77.3286 23.2135 77.4479 23.2334L80.097 23.6757C80.2165 23.6957 80.297 23.8086 80.2771 23.9279C80.2592 24.0349 80.1665 24.1108 80.0611 24.1108ZM74.7628 23.2261C74.7508 23.2261 74.7386 23.2251 74.7264 23.2231L72.0771 22.7807C71.9576 22.7608 71.877 22.6479 71.897 22.5286C71.9171 22.4093 72.0295 22.3285 72.1494 22.3486L74.7988 22.791C74.9182 22.8109 74.9988 22.9238 74.9788 23.0432C74.9609 23.1502 74.8682 23.2261 74.7628 23.2261ZM69.4643 22.3413C69.4524 22.3413 69.4401 22.3403 69.4279 22.3383L66.7788 21.8959C66.6593 21.876 66.5788 21.7631 66.5987 21.6438C66.6188 21.5245 66.7314 21.4437 66.8511 21.4639L69.5003 21.9063C69.6197 21.9262 69.7003 22.0391 69.6804 22.1584C69.6624 22.2655 69.5697 22.3413 69.4643 22.3413ZM64.1659 21.4566C64.1539 21.4566 64.1418 21.4556 64.1295 21.4536L61.4802 21.0112C61.3609 20.9913 61.2802 20.8784 61.3001 20.759C61.32 20.6398 61.4326 20.5592 61.5526 20.5791L64.2018 21.0215C64.3212 21.0414 64.4018 21.1543 64.3819 21.2736C64.3641 21.3807 64.2712 21.4566 64.1659 21.4566ZM58.8675 20.5719C58.8555 20.5719 58.8434 20.5709 58.8311 20.5689L56.1818 20.1265C56.0625 20.1066 55.9818 19.9937 56.0017 19.8743C56.0218 19.7551 56.1341 19.6744 56.2542 19.6944L58.9034 20.1368C59.0228 20.1567 59.1035 20.2696 59.0835 20.3889C59.0657 20.496 58.9728 20.5719 58.8675 20.5719ZM53.5691 19.6872C53.5571 19.6872 53.545 19.6862 53.5327 19.6842L50.8835 19.2418C50.7641 19.2219 50.6834 19.109 50.7034 18.9897C50.7233 18.8704 50.8356 18.7898 50.9558 18.8098L53.6051 19.2521C53.7244 19.272 53.8051 19.3849 53.7852 19.5042C53.7673 19.6113 53.6744 19.6872 53.5691 19.6872ZM48.2707 18.8024C48.2588 18.8024 48.2466 18.8014 48.2343 18.7994L45.5851 18.357C45.4657 18.3371 45.3851 18.2242 45.405 18.1049C45.4249 17.9855 45.538 17.9051 45.6574 17.925L48.3067 18.3673C48.426 18.3872 48.5067 18.5001 48.4868 18.6194C48.4689 18.7265 48.376 18.8024 48.2707 18.8024ZM42.9723 17.9177C42.9604 17.9177 42.9482 17.9167 42.9359 17.9146L40.2867 17.4723C40.1673 17.4523 40.0867 17.3394 40.1066 17.2201C40.1265 17.1008 40.2386 17.0202 40.359 17.0402L43.0083 17.4826C43.1277 17.5025 43.2083 17.6154 43.1884 17.7347C43.1705 17.8418 43.0776 17.9177 42.9723 17.9177ZM37.674 17.0329C37.662 17.0329 37.6499 17.0319 37.6375 17.0299L34.9883 16.5876C34.8689 16.5676 34.7883 16.4547 34.8082 16.3354C34.8281 16.2161 34.9401 16.1355 35.0606 16.1555L37.7099 16.5979C37.8293 16.6178 37.9099 16.7307 37.89 16.85C37.8721 16.9571 37.7792 17.0329 37.674 17.0329Z" fill="#BFC8D6"/>
<path d="M115.55 31.3685C115.536 31.3685 115.522 31.3672 115.508 31.3644C115.389 31.3414 115.311 31.2264 115.334 31.1076L115.542 30.0382L114.466 29.8586C114.347 29.8387 114.266 29.7258 114.286 29.6065C114.306 29.4872 114.419 29.4066 114.539 29.4265L115.836 29.6431C115.895 29.6529 115.947 29.6858 115.98 29.7343C116.014 29.7828 116.027 29.8429 116.015 29.9009L115.765 31.1911C115.744 31.2958 115.653 31.3685 115.55 31.3685Z" fill="#BFC8D6"/>
<path d="M103.204 94.9188C103.19 94.9188 103.177 94.9175 103.162 94.9147C103.044 94.8917 102.966 94.7767 102.989 94.6579L103.503 92.01C103.526 91.8912 103.641 91.8138 103.76 91.8367C103.879 91.8597 103.957 91.9747 103.934 92.0934L103.419 94.7413C103.399 94.8461 103.307 94.9188 103.204 94.9188ZM104.233 89.6229C104.219 89.6229 104.205 89.6215 104.191 89.6188C104.072 89.5958 103.994 89.4808 104.018 89.3621L104.532 86.7142C104.555 86.5954 104.67 86.5179 104.789 86.5409C104.908 86.5639 104.985 86.6789 104.962 86.7976L104.448 89.4456C104.428 89.5502 104.336 89.6229 104.233 89.6229ZM105.262 84.327C105.248 84.327 105.234 84.3257 105.22 84.3229C105.101 84.2999 105.023 84.1849 105.046 84.0662L105.561 81.4182C105.584 81.2994 105.699 81.222 105.817 81.2449C105.936 81.268 106.014 81.3829 105.991 81.5017L105.477 84.1496C105.456 84.2543 105.365 84.327 105.262 84.327ZM106.291 79.0312C106.277 79.0312 106.263 79.0299 106.249 79.0271C106.13 79.0041 106.052 78.8891 106.075 78.7704L106.589 76.1224C106.613 76.0036 106.728 75.9263 106.846 75.9491C106.965 75.9721 107.043 76.0871 107.02 76.2059L106.506 78.8538C106.485 78.9585 106.394 79.0312 106.291 79.0312ZM107.319 73.7353C107.305 73.7353 107.291 73.734 107.277 73.7313C107.158 73.7082 107.081 73.5933 107.104 73.4745L107.618 70.8266C107.641 70.7078 107.757 70.6305 107.875 70.6533C107.994 70.6763 108.072 70.7913 108.049 70.91L107.534 73.558C107.514 73.6626 107.422 73.7353 107.319 73.7353ZM108.348 68.4394C108.334 68.4394 108.32 68.4381 108.306 68.4354C108.187 68.4123 108.109 68.2974 108.132 68.1786L108.647 65.5307C108.67 65.4119 108.785 65.3346 108.904 65.3574C109.022 65.3804 109.1 65.4954 109.077 65.6142L108.563 68.2621C108.542 68.3668 108.451 68.4394 108.348 68.4394ZM109.377 63.1436C109.363 63.1436 109.349 63.1423 109.335 63.1395C109.216 63.1165 109.138 63.0015 109.161 62.8827L109.675 60.2348C109.699 60.116 109.814 60.0387 109.932 60.0615C110.051 60.0845 110.129 60.1995 110.106 60.3183L109.592 62.9662C109.571 63.0709 109.48 63.1436 109.377 63.1436ZM110.405 57.8477C110.391 57.8477 110.377 57.8464 110.363 57.8437C110.244 57.8207 110.167 57.7057 110.19 57.587L110.704 54.939C110.727 54.8202 110.842 54.7429 110.961 54.7657C111.08 54.7887 111.158 54.9037 111.134 55.0224L110.62 57.6704C110.6 57.7751 110.508 57.8477 110.405 57.8477ZM111.434 52.5519C111.42 52.5519 111.406 52.5506 111.392 52.5478C111.273 52.5248 111.195 52.4098 111.218 52.2911L111.733 49.6431C111.756 49.5243 111.871 49.447 111.99 49.4698C112.108 49.4929 112.186 49.6078 112.163 49.7266L111.649 52.3745C111.628 52.4792 111.537 52.5519 111.434 52.5519ZM112.463 47.256C112.449 47.256 112.435 47.2547 112.421 47.2519C112.302 47.2289 112.224 47.1139 112.247 46.9952L112.762 44.3473C112.785 44.2284 112.9 44.1511 113.019 44.1739C113.137 44.197 113.215 44.3119 113.192 44.4307L112.678 47.0786C112.657 47.1833 112.566 47.256 112.463 47.256ZM113.491 41.9601C113.477 41.9601 113.463 41.9588 113.449 41.956C113.33 41.933 113.253 41.818 113.276 41.6993L113.79 39.0514C113.813 38.9326 113.929 38.8552 114.047 38.8781C114.166 38.9011 114.244 39.0161 114.221 39.1348L113.706 41.7827C113.686 41.8875 113.594 41.9601 113.491 41.9601ZM114.52 36.6643C114.506 36.6643 114.492 36.663 114.478 36.6602C114.359 36.6372 114.281 36.5222 114.305 36.4035L114.819 33.7555C114.842 33.6367 114.958 33.5594 115.076 33.5822C115.195 33.6053 115.272 33.7202 115.249 33.839L114.735 36.4869C114.715 36.5916 114.623 36.6643 114.52 36.6643Z" fill="#BFC8D6"/>
<path d="M102.44 98.8568C102.427 98.8568 102.414 98.8557 102.402 98.8534L101.106 98.6267C100.987 98.6059 100.907 98.4924 100.928 98.3732C100.948 98.2542 101.06 98.174 101.182 98.1952L102.265 98.3848L102.475 97.3057C102.498 97.1869 102.613 97.1095 102.732 97.1324C102.851 97.1555 102.928 97.2704 102.905 97.3892L102.655 98.6794C102.634 98.7839 102.543 98.8568 102.44 98.8568Z" fill="#BFC8D6"/>
<path d="M98.5902 98.1837C98.5778 98.1837 98.5649 98.1826 98.5521 98.1803L96.0004 97.734C95.8811 97.7131 95.8015 97.5996 95.8222 97.4804C95.843 97.3614 95.9552 97.2812 96.0762 97.3025L98.6279 97.7488C98.7472 97.7697 98.8268 97.8832 98.8061 98.0024C98.7874 98.1087 98.6947 98.1837 98.5902 98.1837ZM93.4866 97.2908C93.4741 97.2908 93.4613 97.2898 93.4485 97.2875L90.8968 96.8411C90.7775 96.8202 90.6978 96.7067 90.7186 96.5876C90.7393 96.4685 90.8513 96.3884 90.9725 96.4096L93.5242 96.856C93.6435 96.8768 93.7231 96.9904 93.7024 97.1095C93.6838 97.2159 93.591 97.2908 93.4866 97.2908ZM88.3831 96.398C88.3707 96.398 88.3578 96.3969 88.345 96.3947L85.793 95.9483C85.6738 95.9275 85.5941 95.814 85.6149 95.6948C85.6356 95.5758 85.7477 95.4955 85.8689 95.5168L88.4208 95.9632C88.5401 95.984 88.6197 96.0976 88.599 96.2167C88.5803 96.3231 88.4876 96.398 88.3831 96.398ZM83.2794 95.5053C83.267 95.5053 83.2542 95.5042 83.2414 95.5019L80.6896 95.0555C80.5704 95.0346 80.4907 94.9211 80.5115 94.802C80.5322 94.6829 80.6438 94.6028 80.7654 94.624L83.3171 95.0704C83.4364 95.0913 83.516 95.2048 83.4953 95.324C83.4767 95.4303 83.384 95.5053 83.2794 95.5053ZM78.176 94.6124C78.1636 94.6124 78.1508 94.6113 78.1379 94.6091L75.586 94.1627C75.4667 94.1419 75.3871 94.0284 75.4078 93.9092C75.4286 93.7902 75.541 93.71 75.6618 93.7312L78.2137 94.1776C78.333 94.1985 78.4126 94.312 78.3919 94.4311C78.3732 94.5375 78.2805 94.6124 78.176 94.6124ZM73.0724 93.7196C73.06 93.7196 73.0471 93.7185 73.0343 93.7163L70.4826 93.2699C70.3633 93.249 70.2837 93.1355 70.3044 93.0164C70.3252 92.8974 70.4372 92.8171 70.5584 92.8384L73.1101 93.2848C73.2294 93.3057 73.309 93.4192 73.2883 93.5383C73.2696 93.6447 73.1769 93.7196 73.0724 93.7196ZM67.9687 92.8268C67.9563 92.8268 67.9435 92.8257 67.9306 92.8235L65.3789 92.3771C65.2597 92.3562 65.18 92.2427 65.2008 92.1236C65.2215 92.0046 65.3333 91.9243 65.4547 91.9456L68.0064 92.392C68.1257 92.4129 68.2053 92.5264 68.1846 92.6455C68.1659 92.7519 68.0732 92.8268 67.9687 92.8268ZM62.8652 91.934C62.8527 91.934 62.8399 91.9329 62.8272 91.9307L60.2755 91.4843C60.1562 91.4634 60.0765 91.3499 60.0973 91.2308C60.1182 91.1115 60.2326 91.0319 60.351 91.0528L62.9027 91.4992C63.022 91.5201 63.1018 91.6336 63.0809 91.7527C63.0623 91.8591 62.9698 91.934 62.8652 91.934ZM57.7616 91.0412C57.7491 91.0412 57.7363 91.0402 57.7236 91.0379L55.1719 90.5915C55.0526 90.5706 54.9729 90.4572 54.9937 90.338C55.0147 90.2189 55.1285 90.139 55.2475 90.16L57.7992 90.6064C57.9185 90.6273 57.9982 90.7408 57.9774 90.8599C57.9587 90.9663 57.8663 91.0412 57.7616 91.0412ZM52.6581 90.1484C52.6456 90.1484 52.6328 90.1473 52.6201 90.1451L50.0683 89.6987C49.949 89.6778 49.8692 89.5643 49.8901 89.4451C49.9111 89.326 50.025 89.2462 50.1438 89.2671L52.6956 89.7136C52.8149 89.7345 52.8947 89.848 52.8738 89.9671C52.8552 90.0735 52.7627 90.1484 52.6581 90.1484ZM47.5546 89.2556C47.542 89.2556 47.5293 89.2545 47.5166 89.2523L44.9647 88.8059C44.8454 88.785 44.7657 88.6715 44.7865 88.5524C44.8075 88.4333 44.9215 88.3534 45.0403 88.3744L47.5921 88.8208C47.7113 88.8416 47.7911 88.9551 47.7703 89.0743C47.7517 89.1807 47.6591 89.2556 47.5546 89.2556ZM42.4509 88.3628C42.4384 88.3628 42.4256 88.3617 42.4129 88.3595L39.8612 87.9131C39.7419 87.8922 39.6622 87.7787 39.683 87.6596C39.704 87.5405 39.818 87.4606 39.9368 87.4816L42.4885 87.928C42.6077 87.9489 42.6875 88.0624 42.6666 88.1815C42.648 88.2879 42.5554 88.3628 42.4509 88.3628ZM37.3474 87.47C37.3348 87.47 37.3221 87.4689 37.3094 87.4667L34.7577 87.0203C34.6384 86.9995 34.5586 86.8859 34.5795 86.7668C34.6004 86.6477 34.7146 86.5678 34.8332 86.5888L37.3849 87.0352C37.5042 87.0561 37.5839 87.1695 37.5631 87.2887C37.5445 87.395 37.4519 87.47 37.3474 87.47Z" fill="#BFC8D6"/>
<path d="M32.2458 86.5773C32.2333 86.5773 32.2205 86.5762 32.2078 86.574L30.9119 86.3473C30.8407 86.3349 30.7802 86.2881 30.7503 86.2225C30.7203 86.1569 30.7246 86.0807 30.7617 86.0188L31.4388 84.892C31.5011 84.7883 31.6356 84.7546 31.7397 84.8169C31.8435 84.8792 31.8772 85.0138 31.8149 85.1175L31.302 85.9708L32.2833 86.1424C32.4026 86.1633 32.4824 86.2768 32.4615 86.396C32.4429 86.5023 32.3504 86.5773 32.2458 86.5773Z" fill="#BFC8D6"/>
<path d="M33.0145 82.9132C32.976 82.9132 32.9372 82.9031 32.9019 82.882C32.798 82.8197 32.7644 82.6852 32.8267 82.5814L34.2153 80.2708C34.2774 80.1671 34.4122 80.1334 34.5161 80.1958C34.62 80.258 34.6536 80.3926 34.5913 80.4963L33.2027 82.807C33.1616 82.8753 33.089 82.9132 33.0145 82.9132ZM35.7918 78.292C35.7533 78.292 35.7145 78.2819 35.6792 78.2607C35.5753 78.1985 35.5417 78.0639 35.604 77.9602L36.9926 75.6496C37.0548 75.5458 37.1894 75.5122 37.2934 75.5745C37.3973 75.6368 37.4309 75.7713 37.3686 75.875L35.98 78.1857C35.9389 78.2541 35.8663 78.292 35.7918 78.292ZM38.5691 73.6707C38.5306 73.6707 38.4918 73.6606 38.4564 73.6395C38.3526 73.5772 38.319 73.4426 38.3813 73.3389L39.7699 71.0283C39.8321 70.9246 39.9669 70.8909 40.0707 70.9532C40.1746 71.0155 40.2082 71.15 40.1459 71.2537L38.7573 73.5644C38.7162 73.6328 38.6436 73.6707 38.5691 73.6707ZM41.3463 69.0494C41.3078 69.0494 41.269 69.0393 41.2336 69.0182C41.1298 68.9559 41.0962 68.8214 41.1585 68.7176L42.5472 66.407C42.6095 66.3033 42.7441 66.2696 42.848 66.332C42.9519 66.3942 42.9855 66.5288 42.9232 66.6325L41.5345 68.9431C41.4934 69.0115 41.4208 69.0494 41.3463 69.0494ZM44.1236 64.4282C44.0851 64.4282 44.0463 64.4181 44.0109 64.3969C43.9071 64.3347 43.8735 64.2001 43.9358 64.0964L45.3243 61.7858C45.3864 61.682 45.5212 61.6484 45.6252 61.7107C45.729 61.773 45.7627 61.9075 45.7004 62.0112L44.3118 64.3219C44.2707 64.3903 44.1981 64.4282 44.1236 64.4282ZM46.9008 59.8069C46.8624 59.8069 46.8236 59.7968 46.7882 59.7756C46.6844 59.7134 46.6508 59.5788 46.7131 59.4751L48.1016 57.1645C48.1638 57.0608 48.2984 57.0271 48.4025 57.0894C48.5063 57.1516 48.5399 57.2862 48.4776 57.3899L47.0891 59.7006C47.048 59.769 46.9754 59.8069 46.9008 59.8069ZM49.6782 55.1857C49.6397 55.1857 49.6009 55.1756 49.5656 55.1544C49.4617 55.0922 49.4281 54.9576 49.4904 54.8539L50.879 52.5433C50.9412 52.4395 51.076 52.4058 51.1799 52.4682C51.2837 52.5304 51.3173 52.665 51.255 52.7688L49.8665 55.0794C49.8253 55.1477 49.7527 55.1857 49.6782 55.1857ZM52.4554 50.5644C52.4169 50.5644 52.3781 50.5543 52.3428 50.5331C52.2389 50.4708 52.2053 50.3363 52.2676 50.2325L53.6563 47.922C53.7187 47.8183 53.8535 47.7847 53.9572 47.8469C54.061 47.9092 54.0946 48.0437 54.0323 48.1475L52.6436 50.4581C52.6025 50.5264 52.5299 50.5644 52.4554 50.5644ZM55.2327 45.9431C55.1942 45.9431 55.1554 45.933 55.12 45.9118C55.0162 45.8496 54.9826 45.715 55.0449 45.6113L56.4335 43.3006C56.4958 43.197 56.6304 43.1633 56.7343 43.2256C56.8382 43.2878 56.8718 43.4224 56.8095 43.5261L55.4209 45.8368C55.3797 45.9052 55.3072 45.9431 55.2327 45.9431ZM58.01 41.3219C57.9715 41.3219 57.9327 41.3118 57.8973 41.2906C57.7935 41.2284 57.7599 41.0938 57.8222 40.99L59.2108 38.6794C59.273 38.5758 59.4075 38.5421 59.5116 38.6044C59.6155 38.6666 59.6491 38.8012 59.5868 38.9049L58.1982 41.2156C58.1571 41.2839 58.0845 41.3219 58.01 41.3219ZM60.7873 36.7006C60.7488 36.7006 60.71 36.6905 60.6746 36.6693C60.5708 36.6071 60.5372 36.4725 60.5995 36.3688L61.9881 34.0582C62.0503 33.9544 62.1851 33.9209 62.2889 33.9831C62.3928 34.0454 62.4264 34.18 62.3641 34.2837L60.9755 36.5943C60.9344 36.6627 60.8618 36.7006 60.7873 36.7006ZM63.5645 32.0793C63.526 32.0793 63.4872 32.0692 63.4518 32.048C63.348 31.9858 63.3144 31.8512 63.3767 31.7475L64.7654 29.4369C64.8276 29.3333 64.9621 29.2995 65.0662 29.3619C65.1701 29.4241 65.2037 29.5587 65.1414 29.6624L63.7527 31.973C63.7116 32.0414 63.639 32.0793 63.5645 32.0793ZM66.3417 27.458C66.3034 27.458 66.2645 27.448 66.2291 27.4268C66.1253 27.3645 66.0917 27.23 66.154 27.1262L67.5425 24.8156C67.6048 24.7121 67.7393 24.6782 67.8434 24.7406C67.9472 24.8028 67.9808 24.9374 67.9185 25.0411L66.53 27.3517C66.4889 27.4201 66.4163 27.458 66.3417 27.458ZM69.1189 22.8368C69.0806 22.8368 69.0416 22.8267 69.0063 22.8055C68.9025 22.7433 68.8689 22.6087 68.9312 22.505L70.32 20.1943C70.3823 20.0907 70.5168 20.0569 70.6208 20.1193C70.7247 20.1816 70.7583 20.3161 70.696 20.4198L69.3072 22.7305C69.2661 22.7989 69.1935 22.8368 69.1189 22.8368ZM71.8963 18.2155C71.858 18.2155 71.819 18.2054 71.7837 18.1842C71.6799 18.122 71.6462 17.9874 71.7085 17.8837L73.0972 15.573C73.1595 15.4694 73.2939 15.4356 73.398 15.498C73.5019 15.5602 73.5355 15.6948 73.4732 15.7985L72.0846 18.1092C72.0434 18.1776 71.9709 18.2155 71.8963 18.2155ZM74.6735 13.5942C74.6352 13.5942 74.5962 13.5842 74.5609 13.563C74.457 13.5007 74.4234 13.3661 74.4857 13.2624L75.8743 10.9518C75.9364 10.8482 76.0711 10.8144 76.1752 10.8768C76.279 10.939 76.3126 11.0736 76.2503 11.1773L74.8617 13.4879C74.8206 13.5563 74.748 13.5942 74.6735 13.5942Z" fill="#BFC8D6"/>
<path d="M77.4525 8.97293C77.4141 8.97293 77.3752 8.96283 77.3399 8.94166C77.236 8.87937 77.2024 8.74481 77.2647 8.64112L77.942 7.51432C78.0041 7.41073 78.1388 7.37685 78.2428 7.43929C78.3467 7.50157 78.3803 7.63614 78.318 7.73983L77.6407 8.86662C77.5996 8.93501 77.527 8.97293 77.4525 8.97293Z" fill="#BFC8D6"/>
<path d="M7.58773 55.642C7.51898 55.642 7.45136 55.6098 7.40863 55.5496L6.64827 54.4771C6.5976 54.4057 6.5944 54.311 6.64004 54.2364L7.32523 53.1145C7.38842 53.0111 7.52332 52.9786 7.62662 53.0416C7.72993 53.1046 7.76261 53.2394 7.69952 53.3427L7.08949 54.3415L7.76645 55.2964C7.83649 55.3951 7.81312 55.5318 7.7143 55.6018C7.67571 55.6289 7.6315 55.642 7.58773 55.642Z" fill="#BFC8D6"/>
<path d="M8.86649 51.2312C8.8275 51.2312 8.78812 51.2208 8.75249 51.1991C8.64918 51.1361 8.61651 51.0013 8.67959 50.898L10.0334 48.6814C10.0966 48.5781 10.2315 48.5456 10.3348 48.6086C10.4381 48.6716 10.4708 48.8064 10.4077 48.9097L9.05393 51.1262C9.01253 51.1939 8.94037 51.2312 8.86649 51.2312ZM11.5741 46.7981C11.5351 46.7981 11.4957 46.7877 11.4601 46.766C11.3568 46.703 11.3241 46.5681 11.3872 46.4649L12.741 44.2483C12.8042 44.145 12.9391 44.1125 13.0424 44.1755C13.1457 44.2385 13.1783 44.3732 13.1153 44.4765L11.7614 46.6931C11.7201 46.7607 11.648 46.7981 11.5741 46.7981ZM14.2817 42.365C14.2428 42.365 14.2034 42.3546 14.1677 42.3328C14.0644 42.2699 14.0318 42.1351 14.0948 42.0318L15.4486 39.8152C15.5117 39.7119 15.6468 39.6794 15.75 39.7423C15.8533 39.8053 15.886 39.9402 15.8229 40.0434L14.4691 42.26C14.4277 42.3276 14.3556 42.365 14.2817 42.365ZM16.9893 37.9318C16.9504 37.9318 16.911 37.9215 16.8753 37.8997C16.772 37.8368 16.7394 37.7019 16.8024 37.5986L18.1562 35.3821C18.2193 35.2788 18.3544 35.2462 18.4576 35.3092C18.5609 35.3722 18.5936 35.507 18.5305 35.6103L17.1767 37.8269C17.1353 37.8945 17.0632 37.9318 16.9893 37.9318ZM19.6969 33.4987C19.658 33.4987 19.6186 33.4884 19.5829 33.4666C19.4796 33.4036 19.447 33.2688 19.51 33.1655L20.8638 30.949C20.9269 30.8456 21.062 30.8131 21.1652 30.8761C21.2685 30.9391 21.3012 31.0739 21.2381 31.1772L19.8843 33.3937C19.8429 33.4614 19.7708 33.4987 19.6969 33.4987ZM22.4045 29.0656C22.3656 29.0656 22.3262 29.0553 22.2905 29.0335C22.1872 28.9705 22.1546 28.8357 22.2176 28.7324L23.5714 26.5159C23.6345 26.4126 23.7696 26.38 23.8728 26.443C23.9761 26.506 24.0088 26.6408 23.9457 26.7441L22.5919 28.9606C22.5505 29.0283 22.4784 29.0656 22.4045 29.0656ZM25.1121 24.6325C25.0732 24.6325 25.0338 24.6222 24.9981 24.6004C24.8948 24.5374 24.8622 24.4026 24.9252 24.2993L26.279 22.0827C26.3421 21.9794 26.4772 21.9469 26.5804 22.0099C26.6837 22.0728 26.7164 22.2077 26.6533 22.311L25.2995 24.5275C25.2581 24.5952 25.186 24.6325 25.1121 24.6325ZM27.8197 20.1994C27.7808 20.1994 27.7414 20.189 27.7057 20.1673C27.6024 20.1043 27.5698 19.9695 27.6328 19.8662L28.9867 17.6496C29.0497 17.5463 29.1849 17.5138 29.2881 17.5768C29.3914 17.6398 29.424 17.7745 29.361 17.8778L28.0072 20.0944C27.9658 20.1621 27.8936 20.1994 27.8197 20.1994Z" fill="#BFC8D6"/>
<path d="M30.5276 15.7663C30.4886 15.7663 30.4493 15.7559 30.4136 15.7341C30.3103 15.6711 30.2776 15.5364 30.3407 15.4331L31.0259 14.3112C31.0589 14.2571 31.1138 14.22 31.1763 14.2093L32.4733 13.989C32.5929 13.9687 32.7058 14.049 32.7262 14.1682C32.7465 14.2875 32.6661 14.4006 32.5467 14.4209L31.3483 14.6245L30.715 15.6613C30.6737 15.7289 30.6015 15.7663 30.5276 15.7663Z" fill="#BFC8D6"/>
<path d="M124.541 56.6497C124.448 56.6497 124.362 56.591 124.332 56.4985L123.532 54.0469C123.495 53.9318 123.558 53.8082 123.673 53.7707C123.788 53.7332 123.912 53.7961 123.95 53.9112L124.749 56.3628C124.787 56.4778 124.724 56.6014 124.609 56.6389C124.586 56.6462 124.563 56.6497 124.541 56.6497ZM122.941 51.7465C122.849 51.7465 122.763 51.6877 122.733 51.5952L121.933 49.1436C121.895 49.0286 121.958 48.905 122.073 48.8675C122.188 48.8299 122.312 48.8929 122.35 49.0079L123.15 51.4595C123.187 51.5746 123.124 51.6982 123.009 51.7357C122.986 51.743 122.964 51.7465 122.941 51.7465ZM121.341 46.8432C121.249 46.8432 121.163 46.7845 121.133 46.692L120.333 44.2404C120.296 44.1254 120.358 44.0018 120.474 43.9643C120.588 43.9266 120.712 43.9897 120.75 44.1047L121.55 46.5563C121.587 46.6713 121.524 46.795 121.409 46.8324C121.387 46.8397 121.364 46.8432 121.341 46.8432ZM119.742 41.94C119.649 41.94 119.563 41.8813 119.533 41.7888L118.733 39.3372C118.696 39.2222 118.759 39.0986 118.874 39.0611C118.989 39.0235 119.113 39.0865 119.15 39.2015L119.95 41.6531C119.988 41.7681 119.925 41.8917 119.809 41.9292C119.787 41.9365 119.764 41.94 119.742 41.94ZM118.142 37.0368C118.049 37.0368 117.964 36.9781 117.933 36.8856L117.134 34.4339C117.096 34.3189 117.159 34.1953 117.274 34.1578C117.389 34.1202 117.513 34.1832 117.551 34.2982L118.35 36.7498C118.388 36.8648 118.325 36.9885 118.21 37.0259C118.187 37.0333 118.164 37.0368 118.142 37.0368ZM116.542 32.1336C116.45 32.1336 116.364 32.0748 116.334 31.9823L115.618 29.7884L115.524 29.7305C115.421 29.667 115.389 29.5321 115.452 29.4291C115.516 29.3262 115.651 29.294 115.754 29.3576L115.916 29.4576C115.961 29.4849 115.994 29.5269 116.01 29.5762L116.751 31.8466C116.788 31.9616 116.725 32.0852 116.61 32.1227C116.588 32.1301 116.565 32.1336 116.542 32.1336ZM113.442 28.4097C113.403 28.4097 113.363 28.3991 113.327 28.3771L111.13 27.0236C111.027 26.9601 110.995 26.8252 111.058 26.7222C111.122 26.6193 111.257 26.5873 111.36 26.6507L113.557 28.0042C113.66 28.0677 113.692 28.2026 113.629 28.3056C113.587 28.3727 113.515 28.4097 113.442 28.4097ZM109.048 25.7028C109.009 25.7028 108.969 25.6922 108.933 25.6702L106.736 24.3167C106.633 24.2532 106.601 24.1182 106.664 24.0153C106.728 23.9124 106.863 23.8801 106.966 23.9438L109.163 25.2972C109.266 25.3608 109.298 25.4957 109.235 25.5987C109.193 25.6658 109.121 25.7028 109.048 25.7028ZM104.654 22.9959C104.615 22.9959 104.575 22.9854 104.539 22.9633L102.342 21.6098C102.239 21.5463 102.207 21.4113 102.27 21.3084C102.334 21.2054 102.469 21.1734 102.572 21.2369L104.769 22.5903C104.872 22.6538 104.904 22.7888 104.841 22.8918C104.799 22.9589 104.727 22.9959 104.654 22.9959ZM100.26 20.289C100.221 20.289 100.181 20.2785 100.145 20.2564L97.9478 18.903C97.8446 18.8394 97.8127 18.7045 97.8761 18.6015C97.9397 18.4987 98.0745 18.4664 98.1778 18.53L100.375 19.8835C100.478 19.947 100.51 20.0819 100.447 20.1849C100.405 20.252 100.333 20.289 100.26 20.289ZM95.8657 17.5821C95.8265 17.5821 95.7867 17.5715 95.7509 17.5495L93.5538 16.196C93.4506 16.1326 93.4187 15.9976 93.4821 15.8946C93.5456 15.7918 93.6807 15.7595 93.7837 15.8231L95.9809 17.1766C96.0841 17.2401 96.116 17.375 96.0526 17.478C96.0111 17.5451 95.9391 17.5821 95.8657 17.5821ZM91.4716 14.8752C91.4324 14.8752 91.3926 14.8647 91.3568 14.8426L89.1597 13.4891C89.0565 13.4256 89.0246 13.2907 89.088 13.1877C89.1516 13.0849 89.2867 13.0526 89.3897 13.1162L91.5868 14.4696C91.69 14.5332 91.7219 14.6681 91.6585 14.7711C91.617 14.8382 91.5453 14.8752 91.4716 14.8752ZM35.0526 13.9916C34.9475 13.9916 34.8548 13.9161 34.8366 13.8093C34.8163 13.69 34.8967 13.5769 35.0161 13.5566L37.5608 13.1242C37.6793 13.1042 37.7933 13.1841 37.8136 13.3035C37.834 13.4227 37.7536 13.5359 37.6342 13.5561L35.0895 13.9885C35.0771 13.9906 35.0648 13.9916 35.0526 13.9916ZM40.1419 13.127C40.0369 13.127 39.9441 13.0515 39.926 12.9446C39.9056 12.8254 39.986 12.7122 40.1054 12.6919L42.6501 12.2596C42.7698 12.2392 42.8827 12.3196 42.903 12.4388C42.9233 12.5581 42.8429 12.6712 42.7235 12.6915L40.1789 13.1238C40.1664 13.126 40.1541 13.127 40.1419 13.127ZM45.231 12.2623C45.126 12.2623 45.0333 12.1868 45.0151 12.08C44.9948 11.9608 45.0752 11.8476 45.1946 11.8273L47.7392 11.395C47.8587 11.3747 47.9718 11.455 47.9921 11.5742C48.0125 11.6935 47.932 11.8066 47.8127 11.8269L45.268 12.2592C45.2556 12.2613 45.2433 12.2623 45.231 12.2623ZM87.0776 12.1683C87.0384 12.1683 86.9986 12.1578 86.9628 12.1357L84.7656 10.7822C84.6624 10.7188 84.6305 10.5838 84.6939 10.4808C84.7575 10.3779 84.8924 10.3457 84.9956 10.4093L87.1927 11.7627C87.296 11.8262 87.3279 11.9612 87.2645 12.0642C87.223 12.1313 87.1511 12.1683 87.0776 12.1683ZM50.3204 11.3977C50.2153 11.3977 50.1226 11.3222 50.1044 11.2153C50.0841 11.0961 50.1645 10.9829 50.2839 10.9626L52.8285 10.5303C52.9474 10.51 53.0611 10.5903 53.0814 10.7095C53.1018 10.8288 53.0214 10.9419 52.902 10.9622L50.3573 11.3945C50.3449 11.3967 50.3326 11.3977 50.3204 11.3977ZM55.4097 10.533C55.3046 10.533 55.2119 10.4575 55.1937 10.3507C55.1734 10.2314 55.2538 10.1183 55.3732 10.098L57.9179 9.66563C58.036 9.64549 58.1504 9.7255 58.1707 9.84485C58.1911 9.9641 58.1107 10.0773 57.9913 10.0975L55.4466 10.5299C55.4342 10.532 55.4219 10.533 55.4097 10.533ZM60.4988 9.66839C60.3938 9.66839 60.3011 9.59286 60.283 9.48606C60.2626 9.36681 60.343 9.25366 60.4624 9.23337L63.0071 8.80102C63.1261 8.78069 63.2396 8.86099 63.26 8.98025C63.2803 9.0995 63.1999 9.21265 63.0805 9.23293L60.5358 9.66528C60.5234 9.66735 60.511 9.66839 60.4988 9.66839ZM82.6835 9.46139C82.6444 9.46139 82.6045 9.45085 82.5688 9.4288L80.3716 8.07537C80.2684 8.01185 80.2365 7.87694 80.2999 7.77394C80.3633 7.67108 80.4984 7.63878 80.6016 7.70245L82.7987 9.05588C82.9019 9.11939 82.9338 9.2543 82.8704 9.35731C82.8289 9.42447 82.7572 9.46139 82.6835 9.46139ZM65.5883 8.80373C65.4834 8.80373 65.3904 8.7282 65.3725 8.62136C65.3521 8.5021 65.4324 8.38896 65.5517 8.36867L68.0961 7.93632C68.216 7.91614 68.3291 7.99629 68.349 8.11554C68.3694 8.2348 68.2891 8.34794 68.1698 8.36823L65.6254 8.80053C65.6129 8.8027 65.6005 8.80373 65.5883 8.80373ZM70.6774 7.93908C70.5725 7.93908 70.4796 7.86355 70.4613 7.75675C70.4412 7.6375 70.5215 7.52435 70.6408 7.50412L73.1854 7.07177C73.3049 7.05153 73.4182 7.13174 73.4385 7.25099C73.4586 7.37024 73.3783 7.48339 73.2591 7.50363L70.7144 7.93598C70.702 7.93804 70.6896 7.93908 70.6774 7.93908ZM75.7667 7.07443C75.6617 7.07443 75.5688 6.99889 75.5508 6.89205C75.5305 6.7728 75.6108 6.65965 75.73 6.63941L78.1145 6.23429C78.1674 6.22538 78.2211 6.23591 78.2663 6.26378L78.4047 6.34897C78.5079 6.41243 78.5398 6.54739 78.4764 6.6504C78.4126 6.75325 78.2775 6.7855 78.1747 6.72189L78.1066 6.68004L75.8037 7.07127C75.7913 7.07344 75.7789 7.07443 75.7667 7.07443Z" fill="#BFC8D6"/>
<path d="M125.066 61.4752C125.028 61.4752 124.988 61.465 124.953 61.4435C124.849 61.3809 124.816 61.2462 124.879 61.1427L125.508 60.1043L125.132 58.9502C125.094 58.8352 125.157 58.7116 125.272 58.674C125.387 58.6366 125.511 58.6994 125.549 58.8144L125.956 60.064C125.976 60.1246 125.968 60.1907 125.935 60.2452L125.254 61.3696C125.213 61.4376 125.14 61.4752 125.066 61.4752Z" fill="#BFC8D6"/>
<path d="M60.83 111.919C60.7368 111.919 60.6504 111.859 60.621 111.766C60.5847 111.65 60.649 111.527 60.7645 111.491L63.2157 110.723C63.3318 110.686 63.4544 110.751 63.4906 110.866C63.5268 110.981 63.4625 111.104 63.347 111.141L60.8958 111.909C60.8739 111.916 60.8519 111.919 60.83 111.919ZM65.7323 110.382C65.639 110.382 65.5525 110.322 65.5231 110.229C65.4869 110.113 65.5511 109.99 65.6666 109.954L68.1179 109.186C68.2341 109.149 68.3566 109.214 68.3928 109.329C68.429 109.445 68.3647 109.567 68.2493 109.604L65.798 110.372C65.7762 110.379 65.7539 110.382 65.7323 110.382ZM70.6347 108.845C70.5413 108.845 70.4548 108.786 70.4254 108.692C70.3893 108.577 70.4535 108.454 70.5689 108.417L73.02 107.649C73.1357 107.613 73.2588 107.677 73.295 107.792C73.3311 107.908 73.2669 108.031 73.1515 108.067L70.7004 108.835C70.6786 108.842 70.6563 108.845 70.6347 108.845ZM75.5368 107.309C75.4435 107.309 75.357 107.249 75.3277 107.155C75.2915 107.04 75.3557 106.917 75.4711 106.881L77.9222 106.112C78.038 106.076 78.1609 106.14 78.1971 106.256C78.2333 106.371 78.1691 106.494 78.0536 106.53L75.6026 107.298C75.5807 107.305 75.5585 107.309 75.5368 107.309ZM80.439 105.772C80.3457 105.772 80.2592 105.712 80.2298 105.618C80.1936 105.503 80.2578 105.38 80.3733 105.344L82.8243 104.575C82.9401 104.539 83.0631 104.603 83.0992 104.719C83.1354 104.834 83.0712 104.957 82.9558 104.993L80.5047 105.762C80.4829 105.769 80.4606 105.772 80.439 105.772ZM85.3412 104.235C85.2478 104.235 85.1613 104.175 85.1319 104.081C85.0958 103.966 85.16 103.843 85.2754 103.807L87.7267 103.038C87.843 103.002 87.9655 103.067 88.0016 103.182C88.0378 103.297 87.9736 103.42 87.8582 103.456L85.4069 104.225C85.385 104.232 85.3628 104.235 85.3412 104.235ZM90.2435 102.698C90.1502 102.698 90.0637 102.638 90.0344 102.545C89.9982 102.429 90.0624 102.306 90.1778 102.27L92.6289 101.502C92.7445 101.465 92.8676 101.53 92.9038 101.645C92.94 101.761 92.8758 101.884 92.7603 101.92L90.3093 102.688C90.2874 102.695 90.2652 102.698 90.2435 102.698ZM95.1457 101.161C95.0523 101.161 94.9659 101.102 94.9365 101.008C94.9003 100.892 94.9645 100.77 95.0799 100.733L97.531 99.965C97.6468 99.9285 97.7698 99.9931 97.8059 100.108C97.8421 100.224 97.7779 100.347 97.6625 100.383L95.2114 101.151C95.1896 101.158 95.1673 101.161 95.1457 101.161ZM100.048 99.6246C99.9545 99.6246 99.868 99.5647 99.8386 99.4711C99.8025 99.3557 99.8667 99.2328 99.9821 99.1966L102.255 98.4841L102.266 98.4655C102.329 98.362 102.464 98.3291 102.567 98.3918C102.671 98.4545 102.704 98.5892 102.641 98.6926L102.587 98.7819C102.559 98.8274 102.516 98.8614 102.465 98.8773L100.114 99.6145C100.092 99.6214 100.069 99.6246 100.048 99.6246ZM103.783 96.6027C103.745 96.6027 103.706 96.5925 103.67 96.571C103.567 96.5084 103.533 96.3737 103.596 96.2702L104.926 94.0747C104.989 93.9711 105.124 93.9382 105.228 94.0008C105.331 94.0634 105.364 94.1981 105.302 94.3016L103.971 96.497C103.93 96.5651 103.858 96.6027 103.783 96.6027ZM106.444 92.2118C106.405 92.2118 106.366 92.2015 106.331 92.1801C106.227 92.1174 106.194 91.9828 106.257 91.8793L107.587 89.6839C107.65 89.5803 107.785 89.5474 107.888 89.6099C107.992 89.6725 108.025 89.8072 107.962 89.9107L106.632 92.1062C106.591 92.1742 106.518 92.2118 106.444 92.2118ZM109.105 87.8209C109.066 87.8209 109.027 87.8106 108.991 87.7892C108.888 87.7265 108.855 87.5918 108.917 87.4884L110.248 85.2929C110.31 85.1893 110.445 85.1565 110.549 85.219C110.652 85.2816 110.686 85.4163 110.623 85.5198L109.292 87.7152C109.251 87.7833 109.179 87.8209 109.105 87.8209ZM111.765 83.43C111.727 83.43 111.688 83.4198 111.652 83.3982C111.548 83.3356 111.515 83.2009 111.578 83.0974L112.908 80.902C112.971 80.7984 113.106 80.7655 113.209 80.828C113.313 80.8906 113.346 81.0253 113.283 81.1288L111.953 83.3243C111.912 83.3923 111.839 83.43 111.765 83.43ZM114.426 79.039C114.387 79.039 114.348 79.0288 114.313 79.0073C114.209 78.9447 114.176 78.81 114.239 78.7065L115.569 76.511C115.632 76.4075 115.767 76.3746 115.87 76.4371C115.974 76.4997 116.007 76.6344 115.944 76.7379L114.614 78.9334C114.572 79.0014 114.5 79.039 114.426 79.039ZM117.086 74.6481C117.048 74.6481 117.009 74.6378 116.973 74.6163C116.869 74.5537 116.836 74.419 116.899 74.3156L118.229 72.1201C118.292 72.0165 118.427 71.9836 118.53 72.0462C118.634 72.1088 118.667 72.2435 118.604 72.347L117.274 74.5424C117.233 74.6104 117.16 74.6481 117.086 74.6481ZM119.747 70.2571C119.708 70.2571 119.669 70.2469 119.634 70.2254C119.53 70.1628 119.497 70.0281 119.56 69.9246L120.89 67.7292C120.953 67.6256 121.088 67.5927 121.191 67.6552C121.295 67.7179 121.328 67.8526 121.265 67.956L119.935 70.1515C119.894 70.2195 119.821 70.2571 119.747 70.2571ZM122.408 65.8662C122.369 65.8662 122.33 65.856 122.294 65.8345C122.191 65.7719 122.157 65.6372 122.22 65.5337L123.551 63.3383C123.613 63.2347 123.748 63.2018 123.852 63.2643C123.955 63.327 123.988 63.4617 123.926 63.5651L122.595 65.7606C122.554 65.8286 122.482 65.8662 122.408 65.8662Z" fill="#BFC8D6"/>
<path d="M57.1218 113.081C57.0668 113.081 57.0128 113.06 56.9715 113.021L56.0137 112.12C55.9256 112.037 55.9215 111.899 56.0044 111.811C56.0875 111.722 56.2262 111.718 56.3143 111.801L57.1786 112.614L58.3114 112.259C58.4264 112.223 58.5499 112.287 58.5862 112.403C58.6225 112.518 58.5581 112.641 58.4426 112.677L57.1874 113.071C57.1659 113.078 57.1438 113.081 57.1218 113.081Z" fill="#BFC8D6"/>
<path d="M54.285 110.41C54.231 110.41 54.1769 110.39 54.1347 110.35L52.253 108.58C52.1648 108.497 52.1607 108.359 52.2437 108.27C52.3268 108.182 52.4657 108.178 52.5537 108.261L54.4353 110.031C54.5235 110.114 54.5276 110.253 54.4446 110.341C54.4015 110.387 54.3432 110.41 54.285 110.41ZM50.5217 106.87C50.4677 106.87 50.4138 106.85 50.3713 106.81L48.4897 105.04C48.4016 104.957 48.3974 104.818 48.4804 104.73C48.5636 104.642 48.7023 104.638 48.7903 104.721L50.6719 106.491C50.7601 106.574 50.7642 106.713 50.6812 106.801C50.6382 106.846 50.5799 106.87 50.5217 106.87ZM46.7584 103.329C46.7044 103.329 46.6505 103.31 46.6081 103.27L44.7263 101.5C44.6382 101.417 44.6341 101.278 44.717 101.19C44.8 101.102 44.9389 101.098 45.027 101.181L46.9087 102.951C46.9968 103.034 47.001 103.172 46.918 103.26C46.8749 103.306 46.8167 103.329 46.7584 103.329ZM42.9951 99.789C42.9411 99.789 42.8871 99.7692 42.8448 99.7294L40.9632 97.9593C40.875 97.8763 40.8708 97.7377 40.9538 97.6496C41.037 97.5614 41.1758 97.5575 41.2638 97.6403L43.1455 99.4104C43.2336 99.4933 43.2377 99.632 43.1548 99.72C43.1116 99.7659 43.0533 99.789 42.9951 99.789ZM39.2318 96.2487C39.1778 96.2487 39.1237 96.2289 39.0814 96.1891L37.1998 94.419C37.1117 94.336 37.1075 94.1974 37.1905 94.1093C37.2734 94.0211 37.4125 94.0172 37.5004 94.1L39.3821 95.8701C39.4702 95.9531 39.4743 96.0917 39.3914 96.1798C39.3482 96.2256 39.29 96.2487 39.2318 96.2487ZM35.4685 92.7084C35.4145 92.7084 35.3605 92.6887 35.3182 92.6488L33.4365 90.8787C33.3484 90.7958 33.3442 90.6571 33.4272 90.5691C33.5102 90.4809 33.6491 90.4769 33.7372 90.5598L35.6188 92.3299C35.707 92.4129 35.7111 92.5515 35.6282 92.6396C35.585 92.6853 35.5268 92.7084 35.4685 92.7084ZM31.7052 89.1681C31.6512 89.1681 31.5971 89.1484 31.5548 89.1085L30.5093 88.1249C30.4987 88.1149 30.489 88.104 30.4807 88.0921L29.8169 87.1559C29.7468 87.0572 29.7702 86.9205 29.869 86.8505C29.9679 86.7806 30.1047 86.804 30.1747 86.9027L30.8258 87.821L31.8555 88.7897C31.9437 88.8726 31.9477 89.0112 31.8648 89.0993C31.8216 89.145 31.7634 89.1681 31.7052 89.1681ZM28.5022 85.1412C28.4334 85.1412 28.3658 85.109 28.3231 85.0487L26.8292 82.9416C26.7592 82.8429 26.7826 82.7062 26.8814 82.6363C26.9805 82.5663 27.117 82.5897 27.1871 82.6884L28.6809 84.7955C28.7509 84.8942 28.7276 85.0309 28.6288 85.1009C28.5902 85.1281 28.546 85.1412 28.5022 85.1412ZM25.5145 80.927C25.4458 80.927 25.3782 80.8948 25.3354 80.8346L23.8416 78.7275C23.7715 78.6288 23.7949 78.4921 23.8937 78.4222C23.9927 78.3522 24.1295 78.3756 24.1994 78.4743L25.6933 80.5814C25.7633 80.6801 25.7399 80.8168 25.6411 80.8868C25.6025 80.9139 25.5583 80.927 25.5145 80.927ZM22.5268 76.7129C22.4581 76.7129 22.3905 76.6807 22.3477 76.6204L20.8539 74.5134C20.7838 74.4146 20.8072 74.2779 20.906 74.208C21.005 74.138 21.1418 74.1615 21.2117 74.2601L22.7056 76.3672C22.7756 76.466 22.7522 76.6026 22.6534 76.6726C22.6149 76.6998 22.5707 76.7129 22.5268 76.7129ZM19.5391 72.4987C19.4704 72.4987 19.4028 72.4665 19.36 72.4063L17.8662 70.2992C17.7961 70.2004 17.8195 70.0637 17.9183 69.9938C18.0172 69.9238 18.1542 69.9473 18.224 70.0459L19.7179 72.153C19.7879 72.2518 19.7645 72.3885 19.6657 72.4584C19.6272 72.4856 19.583 72.4987 19.5391 72.4987ZM16.5515 68.2846C16.4828 68.2846 16.4151 68.2524 16.3724 68.1921L14.8785 66.085C14.8085 65.9863 14.8319 65.8496 14.9307 65.7797C15.0298 65.7097 15.1663 65.7331 15.2364 65.8318L16.7302 67.9389C16.8002 68.0376 16.7769 68.1743 16.6781 68.2442C16.6395 68.2715 16.5953 68.2846 16.5515 68.2846ZM13.5638 64.0704C13.495 64.0704 13.4274 64.0382 13.3847 63.9779L11.8908 61.8708C11.8208 61.7721 11.8442 61.6354 11.943 61.5655C12.042 61.4955 12.1787 61.5189 12.2487 61.6176L13.7425 63.7247C13.8125 63.8234 13.7892 63.9602 13.6904 64.0301C13.6518 64.0573 13.6076 64.0704 13.5638 64.0704ZM10.5761 59.8563C10.5074 59.8563 10.4398 59.8241 10.397 59.7638L8.90318 57.6567C8.83315 57.558 8.85651 57.4213 8.95533 57.3514C9.05425 57.2814 9.19097 57.3048 9.26101 57.4035L10.7549 59.5106C10.8249 59.6093 10.8015 59.746 10.7027 59.816C10.6642 59.8432 10.6199 59.8563 10.5761 59.8563Z" fill="#BFC8D6"/>
<path d="M78.4758 9.11423C78.3795 9.11423 78.2912 9.05013 78.2646 8.95269L77.9194 7.68458C77.8875 7.56784 77.9564 7.44746 78.0732 7.4157C78.19 7.38394 78.3102 7.45277 78.3421 7.56952L78.6874 8.83762C78.7192 8.95436 78.6503 9.07474 78.5335 9.1065C78.5143 9.11177 78.4948 9.11423 78.4758 9.11423Z" fill="#BFC8D6"/>
<path d="M101.62 94.0399C101.524 94.0399 101.436 93.9758 101.409 93.8784L100.728 91.3806C100.696 91.2638 100.765 91.1434 100.882 91.1117C100.999 91.0799 101.12 91.1488 101.151 91.2655L101.832 93.7633C101.864 93.88 101.795 94.0004 101.678 94.0322C101.659 94.0374 101.639 94.0399 101.62 94.0399ZM100.259 89.0443C100.163 89.0443 100.074 88.9802 100.048 88.8828L99.3669 86.385C99.335 86.2683 99.4039 86.1478 99.5209 86.1161C99.6373 86.0843 99.7581 86.1532 99.79 86.2699L100.471 88.7677C100.503 88.8844 100.434 89.0048 100.317 89.0366C100.297 89.0418 100.278 89.0443 100.259 89.0443ZM98.8975 84.0487C98.8012 84.0487 98.7127 83.9846 98.6862 83.8871L98.0055 81.3893C97.9736 81.2725 98.0425 81.1521 98.1594 81.1204C98.2764 81.0887 98.3967 81.1575 98.4286 81.2742L99.1093 83.772C99.1412 83.8888 99.0723 84.0092 98.9553 84.0409C98.9361 84.0462 98.9166 84.0487 98.8975 84.0487ZM97.5362 79.0531C97.4398 79.0531 97.3514 78.989 97.3248 78.8915L96.6443 76.3937C96.6125 76.277 96.6814 76.1566 96.7983 76.1248C96.9148 76.0932 97.0358 76.1619 97.0675 76.2786L97.7479 78.7765C97.7798 78.8931 97.7109 79.0135 97.594 79.0453C97.5747 79.0505 97.5552 79.0531 97.5362 79.0531ZM96.1749 74.0574C96.0786 74.0574 95.9902 73.9933 95.9636 73.8959L95.2829 71.3981C95.251 71.2814 95.3199 71.1609 95.4369 71.1292C95.5538 71.0972 95.6741 71.1663 95.706 71.283L96.3867 73.7808C96.4186 73.8975 96.3497 74.0179 96.2328 74.0497C96.2135 74.0549 96.194 74.0574 96.1749 74.0574ZM94.8135 69.0618C94.7172 69.0618 94.6288 68.9977 94.6022 68.9002L93.9215 66.4024C93.8896 66.2857 93.9585 66.1653 94.0755 66.1335C94.1922 66.1018 94.3129 66.1706 94.3446 66.2873L95.0253 68.7851C95.0572 68.9018 94.9883 69.0223 94.8713 69.054C94.8521 69.0592 94.8326 69.0618 94.8135 69.0618ZM93.4522 64.0662C93.3558 64.0662 93.2674 64.0021 93.2408 63.9046L92.5601 61.4067C92.5282 61.29 92.5971 61.1696 92.7141 61.1379C92.8305 61.1062 92.9513 61.1749 92.9832 61.2917L93.6639 63.7895C93.6958 63.9063 93.6269 64.0267 93.51 64.0584C93.4907 64.0636 93.4712 64.0662 93.4522 64.0662ZM92.0907 59.0705C91.9944 59.0705 91.906 59.0064 91.8794 58.9089L91.1989 56.4111C91.167 56.2944 91.2359 56.174 91.3529 56.1422C91.4696 56.1105 91.5903 56.1793 91.622 56.2961L92.3025 58.7939C92.3344 58.9106 92.2655 59.031 92.1486 59.0627C92.1293 59.068 92.1098 59.0705 92.0907 59.0705ZM90.7296 54.0748C90.6332 54.0748 90.5448 54.0107 90.5182 53.9133L89.8375 51.4155C89.8056 51.2988 89.8746 51.1784 89.9915 51.1466C90.108 51.1149 90.229 51.1837 90.2607 51.3004L90.9414 53.7982C90.9733 53.915 90.9043 54.0354 90.7874 54.0671C90.7681 54.0723 90.7486 54.0748 90.7296 54.0748ZM89.3682 49.0792C89.2718 49.0792 89.1833 49.0151 89.1568 48.9176L88.4761 46.4198C88.4442 46.3031 88.5132 46.1827 88.6301 46.151C88.747 46.1192 88.8674 46.188 88.8992 46.3048L89.5799 48.8026C89.6118 48.9193 89.5429 49.0397 89.426 49.0715C89.4067 49.0767 89.3872 49.0792 89.3682 49.0792ZM88.0067 44.0836C87.9104 44.0836 87.822 44.0195 87.7954 43.9221L87.1147 41.4242C87.0828 41.3076 87.1517 41.1871 87.2687 41.1554C87.3854 41.1236 87.5061 41.1924 87.5378 41.3092L88.2185 43.807C88.2504 43.9237 88.1815 44.0441 88.0646 44.0759C88.0453 44.0811 88.0258 44.0836 88.0067 44.0836ZM86.6456 39.088C86.5492 39.088 86.4608 39.0239 86.4342 38.9264L85.7535 36.4286C85.7216 36.3119 85.7906 36.1915 85.9075 36.1598C86.0244 36.1281 86.1448 36.1968 86.1767 36.3136L86.8574 38.8114C86.8892 38.9281 86.8203 39.0485 86.7034 39.0803C86.6841 39.0855 86.6646 39.088 86.6456 39.088ZM85.2842 34.0923C85.1878 34.0923 85.0994 34.0282 85.0728 33.9308L84.3921 31.433C84.3602 31.3163 84.4291 31.1959 84.5461 31.1641C84.6628 31.1323 84.7836 31.2011 84.8152 31.3179L85.496 33.8157C85.5278 33.9324 85.4589 34.0528 85.342 34.0846C85.3227 34.0898 85.3032 34.0923 85.2842 34.0923ZM83.9228 29.0967C83.8264 29.0967 83.738 29.0326 83.7114 28.9351L83.0307 26.4373C82.9988 26.3206 83.0677 26.2002 83.1847 26.1685C83.3011 26.1367 83.4221 26.2055 83.4538 26.3223L84.1345 28.8201C84.1664 28.9368 84.0975 29.0572 83.9806 29.089C83.9613 29.0942 83.9418 29.0967 83.9228 29.0967ZM82.5614 24.1011C82.465 24.1011 82.3766 24.037 82.35 23.9395L81.6693 21.4417C81.6374 21.325 81.7064 21.2046 81.8233 21.1729C81.9402 21.1411 82.0606 21.2099 82.0925 21.3267L82.7732 23.8245C82.8051 23.9412 82.7361 24.0616 82.6192 24.0934C82.5999 24.0986 82.5804 24.1011 82.5614 24.1011ZM81.2002 19.1054C81.1038 19.1054 81.0154 19.0413 80.9888 18.9439L80.3081 16.4461C80.2762 16.3294 80.3452 16.209 80.4621 16.1772C80.5786 16.1454 80.6994 16.2143 80.7313 16.331L81.412 18.8288C81.4438 18.9456 81.3749 19.0659 81.258 19.0977C81.2387 19.103 81.2192 19.1054 81.2002 19.1054ZM79.8388 14.1098C79.7424 14.1098 79.654 14.0457 79.6274 13.9483L78.9468 11.4504C78.9149 11.3337 78.9838 11.2133 79.1007 11.1816C79.2176 11.1498 79.338 11.2186 79.3699 11.3354L80.0506 13.8332C80.0825 13.9499 80.0135 14.0703 79.8966 14.1021C79.8773 14.1073 79.8578 14.1098 79.8388 14.1098Z" fill="#BFC8D6"/>
<path d="M102.644 97.8059C102.548 97.8059 102.46 97.7418 102.433 97.6443L102.088 96.3762C102.056 96.2595 102.125 96.1391 102.242 96.1074C102.358 96.0756 102.479 96.1444 102.511 96.2612L102.856 97.5293C102.888 97.646 102.819 97.7664 102.702 97.7982C102.683 97.8034 102.663 97.8059 102.644 97.8059Z" fill="#BFC8D6"/>
<path d="M31.3745 17.1548C31.2535 17.1548 31.1973 17.0567 31.1973 16.9358V15.6215C31.1973 15.5005 31.2536 15.4025 31.3745 15.4025C31.4954 15.4025 31.5518 15.5005 31.5518 15.6215V16.9358C31.5518 17.0568 31.4954 17.1548 31.3745 17.1548Z" fill="#BFC8D6"/>
<path d="M31.3745 84.181C31.2535 84.181 31.1973 84.083 31.1973 83.962V82.6478C31.1973 82.5268 31.2536 82.4287 31.3745 82.4287C31.4954 82.4287 31.5518 82.5268 31.5518 82.6478V83.962C31.5518 84.083 31.4954 84.181 31.3745 84.181ZM31.3745 80.2383C31.2535 80.2383 31.1973 80.1403 31.1973 80.0193V77.3908C31.1973 77.2698 31.2536 77.1718 31.3745 77.1718C31.4954 77.1718 31.5518 77.2699 31.5518 77.3908V80.0193C31.5518 80.1403 31.4954 80.2383 31.3745 80.2383ZM31.3745 74.9814C31.2535 74.9814 31.1973 74.8833 31.1973 74.7623V72.1338C31.1973 72.0129 31.2536 71.9148 31.3745 71.9148C31.4954 71.9148 31.5518 72.0129 31.5518 72.1338V74.7623C31.5518 74.8833 31.4954 74.9814 31.3745 74.9814ZM31.3745 69.7244C31.2535 69.7244 31.1973 69.6264 31.1973 69.5054V66.8769C31.1973 66.7559 31.2536 66.6578 31.3745 66.6578C31.4954 66.6578 31.5518 66.7559 31.5518 66.8769V69.5054C31.5518 69.6264 31.4954 69.7244 31.3745 69.7244ZM31.3745 64.4675C31.2535 64.4675 31.1973 64.3694 31.1973 64.2484V61.6199C31.1973 61.499 31.2536 61.4009 31.3745 61.4009C31.4954 61.4009 31.5518 61.499 31.5518 61.6199V64.2484C31.5518 64.3694 31.4954 64.4675 31.3745 64.4675ZM31.3745 59.2105C31.2535 59.2105 31.1973 59.1124 31.1973 58.9915V56.363C31.1973 56.242 31.2536 56.1439 31.3745 56.1439C31.4954 56.1439 31.5518 56.242 31.5518 56.363V58.9915C31.5518 59.1124 31.4954 59.2105 31.3745 59.2105ZM31.3745 53.9535C31.2535 53.9535 31.1973 53.8554 31.1973 53.7345V51.106C31.1973 50.985 31.2536 50.8869 31.3745 50.8869C31.4954 50.8869 31.5518 50.985 31.5518 51.106V53.7345C31.5518 53.8555 31.4954 53.9535 31.3745 53.9535ZM31.3745 48.6966C31.2535 48.6966 31.1973 48.5985 31.1973 48.4775V45.849C31.1973 45.7281 31.2536 45.63 31.3745 45.63C31.4954 45.63 31.5518 45.7281 31.5518 45.849V48.4775C31.5518 48.5985 31.4954 48.6966 31.3745 48.6966ZM31.3745 43.4396C31.2535 43.4396 31.1973 43.3415 31.1973 43.2206V40.5921C31.1973 40.4711 31.2536 40.373 31.3745 40.373C31.4954 40.373 31.5518 40.4711 31.5518 40.5921V43.2206C31.5518 43.3415 31.4954 43.4396 31.3745 43.4396ZM31.3745 38.1827C31.2535 38.1827 31.1973 38.0846 31.1973 37.9636V35.3351C31.1973 35.2142 31.2536 35.1161 31.3745 35.1161C31.4954 35.1161 31.5518 35.2142 31.5518 35.3351V37.9636C31.5518 38.0846 31.4954 38.1827 31.3745 38.1827ZM31.3745 32.9257C31.2535 32.9257 31.1973 32.8276 31.1973 32.7067V30.0782C31.1973 29.9572 31.2536 29.8591 31.3745 29.8591C31.4954 29.8591 31.5518 29.9572 31.5518 30.0782V32.7067C31.5518 32.8276 31.4954 32.9257 31.3745 32.9257ZM31.3745 27.6688C31.2535 27.6688 31.1973 27.5707 31.1973 27.4497V24.8212C31.1973 24.7002 31.2536 24.6022 31.3745 24.6022C31.4954 24.6022 31.5518 24.7002 31.5518 24.8212V27.4497C31.5518 27.5707 31.4954 27.6688 31.3745 27.6688ZM31.3745 22.4118C31.2535 22.4118 31.1973 22.3137 31.1973 22.1927V19.5643C31.1973 19.4433 31.2536 19.3452 31.3745 19.3452C31.4954 19.3452 31.5518 19.4433 31.5518 19.5643V22.1927C31.5518 22.3137 31.4954 22.4118 31.3745 22.4118Z" fill="#BFC8D6"/>
<path d="M31.3745 86.8095C31.2535 86.8095 31.1973 86.7114 31.1973 86.5904V85.2762C31.1973 85.1552 31.2536 85.0571 31.3745 85.0571C31.4954 85.0571 31.5518 85.1552 31.5518 85.2762V86.5904C31.5518 86.7115 31.4954 86.8095 31.3745 86.8095Z" fill="#BFC8D6"/>
<path d="M70.0373 87.9624C68.7324 88.0001 67.4595 87.6716 66.357 87.0115C62.9979 85 58.0345 81.678 53.5691 77.3296C47.9029 71.8115 44.6473 66.2026 43.935 60.6946L43.9238 60.6083L43.7856 37.1064C43.7856 32.4617 46.8182 28.6914 52.5118 26.214C57.2158 24.1672 63.4506 23.153 70.0373 23.3435C76.5472 23.5317 82.5711 24.8735 87.0298 27.1094C92.3299 29.7673 95.1108 33.5024 95.1108 37.9308L94.9847 60.387L94.9745 60.4696C94.3236 65.7439 91.3282 71.1957 86.034 76.7089C81.7876 81.1306 76.989 84.6349 73.6935 86.8061C72.6034 87.5246 71.3393 87.9248 70.0373 87.9624Z" fill="url(#paint0_linear_250_1607)"/>
<path d="M71.3286 87.9624C70.0409 88.0001 68.7848 87.6716 67.6969 87.0115C64.3821 85 59.4844 81.678 55.0779 77.3296C49.4866 71.8115 46.2741 66.2026 45.5712 60.6946L45.5602 60.6083L45.4238 37.1064C45.4238 32.4617 48.4163 28.6914 54.0346 26.214C58.6765 24.1672 64.8289 23.153 71.3286 23.3435C77.7526 23.5317 83.6969 24.8735 88.0966 27.1094C93.3267 29.7673 96.0709 33.5024 96.0709 37.9308L95.9464 60.387L95.9363 60.4696C95.2941 65.7439 92.3383 71.1957 87.114 76.7089C82.9236 81.1306 78.1886 84.6349 74.9366 86.8061C73.8607 87.5246 72.6133 87.9248 71.3286 87.9624Z" fill="url(#paint1_linear_250_1607)"/>
<path d="M46.9766 37.1233L47.1139 60.5065C48.6546 72.4372 62.6903 82.0966 68.8032 85.7666C70.5543 86.8179 72.7932 86.7556 74.532 85.6126C80.5174 81.6781 93.7842 71.773 95.2017 60.3021L95.3277 37.9077C95.3276 21.293 46.9766 19.7741 46.9766 37.1233Z" fill="url(#paint2_linear_250_1607)"/>
<path d="M71.6755 82.1623C71.5635 82.1649 71.3939 82.1463 71.2226 82.0426C68.7056 80.5199 63.8264 77.3306 59.5818 73.1655C54.997 68.6665 52.3527 64.2922 51.7464 60.184L51.6118 37.188C51.6174 34.9815 53.3658 33.0931 56.7931 31.5822C60.619 29.8953 66.0524 29.0101 71.6756 29.1435C77.2427 29.2756 82.5175 30.3951 86.1718 32.2066C89.4043 33.8089 91.0384 35.6979 91.0437 37.828L90.9184 60.0278C90.3524 64.0033 87.8706 68.2891 83.513 72.7943C79.4158 77.0303 74.6297 80.3883 72.1282 82.0212C71.957 82.133 71.7876 82.1596 71.6755 82.1623Z" fill="url(#paint3_linear_250_1607)"/>
<path d="M71.1029 80.5905C68.561 79.0265 64.041 76.0066 60.0974 72.1295C55.7888 67.8934 53.2953 63.8284 52.7092 60.0671L52.5757 37.2047C52.5797 35.6271 54.0313 34.1799 56.8792 32.9204C60.5035 31.3172 65.6962 30.4724 71.1028 30.5936C76.4576 30.7137 81.5047 31.7702 84.9732 33.4846C87.6682 34.8166 89.0316 36.2697 89.0352 37.8082L88.9102 59.9264C88.3603 63.5758 86.0084 67.5668 81.8956 71.8112C78.0772 75.7518 73.6332 78.9205 71.1029 80.5905Z" fill="url(#paint4_linear_250_1607)"/>
<path d="M69.5583 63.4162C68.7509 63.4162 68.0122 63.0299 67.6063 62.3993L61.2883 52.5835C60.7406 51.7328 61.0348 50.496 61.9565 49.7979C62.8977 49.085 64.1503 49.1905 64.7424 50.0584L69.3909 56.8728L76.3268 43.8297C77.0001 42.5636 78.6554 41.7667 80.0481 42.0723C81.479 42.3861 82.0593 43.7307 81.3181 45.0508L71.6773 62.2207C71.2779 62.9318 70.494 63.3874 69.6401 63.4149C69.6128 63.4157 69.5856 63.4162 69.5583 63.4162Z" fill="white"/>
<path d="M37.3513 24.9294L24.6313 24.6782C23.031 24.6466 21.7504 23.3337 21.7678 21.7458L21.9047 9.23832C21.9221 7.65027 23.2312 6.37321 24.8317 6.38596L37.5538 6.48719C39.184 6.50019 40.4936 7.81349 40.476 9.42054L40.337 22.0779C40.3193 23.685 38.9812 24.9616 37.3513 24.9294Z" fill="url(#paint5_linear_250_1607)"/>
<path d="M37.7819 25.0153L25.0375 24.7622C23.4343 24.7303 22.1512 23.4161 22.1686 21.8266L22.3057 9.30745C22.3231 7.71793 23.6346 6.43983 25.2381 6.45273L37.9845 6.55529C39.6178 6.56844 40.9301 7.88317 40.9124 9.4918L40.7733 22.1616C40.7557 23.7701 39.415 25.0477 37.7819 25.0153Z" fill="url(#paint6_linear_250_1607)"/>
<path opacity="0.48" d="M32.1855 19.0595C30.6511 16.9685 32.2344 15.5962 30.6026 13.235C28.6556 10.418 25.4622 11.0184 24.2437 8.50828C23.9758 7.95643 23.8629 7.37297 23.8513 6.78882C22.9416 7.26873 22.3177 8.21429 22.3057 9.3075L22.1686 21.8267C22.1512 23.4161 23.4343 24.7304 25.0375 24.7622L37.7819 25.0153C39.0894 25.0413 40.2076 24.2265 40.6113 23.0749C38.3307 20.5186 34.3344 21.9879 32.1855 19.0595Z" fill="white"/>
<path d="M35.3694 21.9559L26.888 21.8036C25.8731 21.7854 25.0603 20.9498 25.0714 19.9371L25.1635 11.528C25.1746 10.5154 26.0054 9.70257 27.0205 9.71262L35.5029 9.79652C36.5308 9.80671 37.3561 10.6426 37.3449 11.6634L37.2518 20.1409C37.2406 21.1618 36.3973 21.9744 35.3694 21.9559Z" fill="url(#paint7_linear_250_1607)"/>
<path d="M35.617 21.7114L27.2448 21.5626C26.2426 21.5448 25.4399 20.7258 25.4508 19.7334L25.5411 11.4919C25.552 10.4994 26.3723 9.70304 27.3746 9.71323L35.7478 9.79812C36.7621 9.80841 37.5766 10.6276 37.5656 11.6277L37.4744 19.9331C37.4635 20.9333 36.6313 21.7294 35.617 21.7114Z" fill="url(#paint8_linear_250_1607)"/>
<path opacity="0.48" d="M32.1858 19.0596C30.6514 16.9686 32.2348 15.5963 30.6029 13.2352C29.3224 11.3823 27.502 11.0078 26.0599 10.2544C25.7441 10.574 25.5464 11.0092 25.5411 11.4919L25.4508 19.7334C25.4399 20.7259 26.2425 21.5449 27.2448 21.5626L35.617 21.7114C36.0703 21.7195 36.4865 21.5641 36.81 21.3013C35.1048 20.9504 33.3668 20.669 32.1858 19.0596Z" fill="white"/>
<path d="M110.744 110.821L93.4649 110.48C91.2911 110.437 89.5513 108.654 89.5749 106.497L89.761 89.5061C89.7846 87.3488 91.5629 85.614 93.737 85.6314L111.019 85.7689C113.234 85.7865 115.013 87.5706 114.989 89.7537L114.8 106.948C114.776 109.131 112.958 110.865 110.744 110.821Z" fill="url(#paint9_linear_250_1607)"/>
<path d="M111.328 110.938L94.0157 110.594C91.8378 110.551 90.0947 108.766 90.1184 106.607L90.3046 89.6001C90.3282 87.4409 92.1099 85.7046 94.2881 85.7222L111.603 85.8615C113.822 85.8794 115.605 87.6654 115.581 89.8506L115.392 107.062C115.368 109.247 113.546 110.982 111.328 110.938Z" fill="url(#paint10_linear_250_1607)"/>
<path opacity="0.48" d="M103.726 102.847C101.641 100.007 103.792 98.1429 101.575 94.9354C98.9306 91.1087 94.5925 91.9242 92.9373 88.5143C92.5733 87.7647 92.42 86.9721 92.4042 86.1786C91.1684 86.8305 90.3209 88.1149 90.3046 89.6L90.1184 106.607C90.0947 108.766 91.8378 110.551 94.0157 110.594L111.328 110.938C113.104 110.973 114.623 109.866 115.172 108.302C112.074 104.83 106.645 106.826 103.726 102.847Z" fill="white"/>
<path d="M108.05 106.782L96.5285 106.575C95.1497 106.55 94.0457 105.415 94.0607 104.04L94.1858 92.6165C94.2009 91.2409 95.3296 90.1368 96.7084 90.1504L108.231 90.2644C109.628 90.2782 110.749 91.4137 110.734 92.8005L110.607 104.317C110.592 105.703 109.446 106.807 108.05 106.782Z" fill="url(#paint11_linear_250_1607)"/>
<path d="M108.387 106.45L97.0138 106.248C95.6524 106.224 94.562 105.111 94.5768 103.763L94.6995 92.5673C94.7143 91.2191 95.8287 90.1373 97.1902 90.1511L108.565 90.2664C109.943 90.2804 111.049 91.3932 111.034 92.7519L110.91 104.034C110.895 105.393 109.765 106.474 108.387 106.45Z" fill="url(#paint12_linear_250_1607)"/>
<path opacity="0.48" d="M103.726 102.848C101.642 100.007 103.792 98.1429 101.576 94.9354C99.8361 92.4184 97.3633 91.9096 95.4043 90.8862C94.9752 91.3204 94.7067 91.9116 94.6995 92.5673L94.5768 103.763C94.562 105.111 95.6524 106.224 97.0138 106.248L108.387 106.45C109.003 106.461 109.568 106.25 110.008 105.893C107.691 105.416 105.33 105.034 103.726 102.848Z" fill="white"/>
<path d="M122.174 39.4548L108.225 39.1793C106.47 39.1447 105.066 37.705 105.085 35.9637L105.235 22.2479C105.254 20.5064 106.69 19.106 108.445 19.12L122.396 19.231C124.184 19.2452 125.62 20.6855 125.601 22.4478L125.448 36.328C125.429 38.0902 123.962 39.49 122.174 39.4548Z" fill="url(#paint13_linear_250_1607)"/>
<path d="M122.647 39.5491L108.671 39.2715C106.913 39.2366 105.506 37.7954 105.525 36.0524L105.675 22.3238C105.694 20.5807 107.133 19.1791 108.891 19.1932L122.869 19.3057C124.66 19.3201 126.099 20.7619 126.08 22.5259L125.927 36.4196C125.908 38.1836 124.438 39.5846 122.647 39.5491Z" fill="url(#paint14_linear_250_1607)"/>
<path opacity="0.48" d="M116.51 33.0178C114.827 30.7248 116.563 29.22 114.774 26.6307C112.639 23.5416 109.137 24.1999 107.801 21.4473C107.507 20.8421 107.383 20.2023 107.37 19.5618C106.373 20.088 105.689 21.1249 105.675 22.3237L105.525 36.0523C105.506 37.7953 106.913 39.2365 108.671 39.2715L122.647 39.549C124.081 39.5775 125.307 38.684 125.75 37.4211C123.249 34.618 118.866 36.2292 116.51 33.0178Z" fill="white"/>
<path d="M120.001 36.194L110.7 36.027C109.587 36.007 108.695 35.0906 108.708 33.9802L108.809 24.7587C108.821 23.6482 109.732 22.7569 110.845 22.7679L120.147 22.8599C121.274 22.8711 122.179 23.7877 122.167 24.9072L122.065 34.2037C122.053 35.3231 121.128 36.2142 120.001 36.194Z" fill="url(#paint15_linear_250_1607)"/>
<path d="M120.272 35.9257L111.091 35.7625C109.992 35.743 109.112 34.8449 109.124 33.7566L109.223 24.7189C109.235 23.6305 110.135 22.7572 111.234 22.7684L120.416 22.8615C121.528 22.8728 122.421 23.771 122.409 24.8678L122.309 33.9756C122.297 35.0724 121.385 35.9455 120.272 35.9257Z" fill="url(#paint16_linear_250_1607)"/>
<path opacity="0.48" d="M116.51 33.0177C114.827 30.7247 116.564 29.2199 114.774 26.6307C113.37 24.5988 111.374 24.1881 109.792 23.3619C109.446 23.7125 109.229 24.1897 109.223 24.719L109.124 33.7567C109.112 34.845 109.992 35.7431 111.091 35.7627L120.272 35.9258C120.77 35.9347 121.226 35.7643 121.581 35.4762C119.711 35.0913 117.805 34.7827 116.51 33.0177Z" fill="white"/>
<path d="M81.8065 12.2802L73.808 12.1222C72.8018 12.1023 71.9965 11.2768 72.0074 10.2783L72.0935 2.41349C72.1045 1.41492 72.9276 0.611907 73.934 0.619933L81.9338 0.683598C82.9589 0.691771 83.7824 1.51758 83.7713 2.52812L83.6839 10.4872C83.6728 11.4977 82.8314 12.3004 81.8065 12.2802Z" fill="url(#paint17_linear_250_1607)"/>
<path d="M82.0776 12.3342L74.0639 12.1751C73.0558 12.155 72.2489 11.3286 72.2599 10.3292L72.3461 2.45701C72.357 1.4575 73.1817 0.653851 74.19 0.661926L82.2051 0.726426C83.2321 0.734698 84.0573 1.56139 84.0462 2.57292L83.9587 10.5397C83.9475 11.5512 83.1045 12.3546 82.0776 12.3342Z" fill="url(#paint18_linear_250_1607)"/>
<path opacity="0.48" d="M78.5586 8.58915C77.5937 7.27432 78.5894 6.41144 77.5632 4.92674C76.3389 3.15534 74.3309 3.53288 73.5647 1.95449C73.3962 1.60747 73.3253 1.2406 73.3179 0.873291C72.7459 1.17507 72.3536 1.76961 72.3461 2.45705L72.2599 10.3292C72.2489 11.3287 73.0558 12.1551 74.0639 12.1751L82.0776 12.3343C82.8998 12.3506 83.6029 11.8382 83.8568 11.1141C82.4227 9.50668 79.9098 10.4306 78.5586 8.58915Z" fill="white"/>
<path d="M80.5595 10.4104L75.2263 10.3146C74.5882 10.3032 74.0771 9.7777 74.0841 9.14097L74.142 3.85329C74.1489 3.21651 74.6714 2.70543 75.3096 2.71173L80.6434 2.76451C81.2898 2.77091 81.8087 3.29652 81.8017 3.93847L81.7432 9.26918C81.7361 9.91104 81.2058 10.422 80.5595 10.4104Z" fill="url(#paint19_linear_250_1607)"/>
<path d="M80.7149 10.2566L75.4504 10.1631C74.8202 10.1519 74.3155 9.63691 74.3223 9.01283L74.3791 3.83052C74.386 3.20644 74.9018 2.7057 75.532 2.7121L80.7972 2.76547C81.435 2.77192 81.9471 3.28704 81.9402 3.91595L81.8829 9.13848C81.876 9.76729 81.3527 10.2679 80.7149 10.2566Z" fill="url(#paint20_linear_250_1607)"/>
<path opacity="0.48" d="M78.5574 8.58909C77.5925 7.27426 78.5882 6.41138 77.562 4.92668C76.7568 3.76163 75.6121 3.52608 74.7053 3.05237C74.5067 3.25335 74.3824 3.52702 74.3791 3.83051L74.3223 9.01282C74.3155 9.6369 74.8202 10.1518 75.4504 10.1631L80.7149 10.2566C80.9999 10.2617 81.2616 10.164 81.4651 9.99875C80.3928 9.77812 79.3 9.60116 78.5574 8.58909Z" fill="white"/>
<path d="M10.4808 59.9001L2.48236 59.7421C1.47616 59.7222 0.670857 58.8967 0.68175 57.8982L0.767855 50.0334C0.778797 49.0348 1.60194 48.2318 2.60834 48.2398L10.6081 48.3035C11.6332 48.3116 12.4567 49.1374 12.4456 50.148L12.3582 58.107C12.3471 59.1176 11.5057 59.9203 10.4808 59.9001Z" fill="url(#paint21_linear_250_1607)"/>
<path d="M10.7514 59.9541L2.73772 59.7949C1.72959 59.7749 0.922762 58.9485 0.933704 57.949L1.01991 50.0769C1.03085 49.0774 1.85557 48.2737 2.86385 48.2818L10.8788 48.3463C11.9059 48.3546 12.7311 49.1813 12.72 50.1928L12.6325 58.1596C12.6214 59.1711 11.7783 59.9745 10.7514 59.9541Z" fill="url(#paint22_linear_250_1607)"/>
<path opacity="0.48" d="M7.23238 56.209C6.26753 54.8942 7.26318 54.0313 6.23702 52.5466C5.01277 50.7753 3.00471 51.1528 2.23854 49.5744C2.07007 49.2273 1.9991 48.8605 1.99176 48.4932C1.41973 48.7949 1.02745 49.3895 1.01991 50.0769L0.933704 57.9491C0.922762 58.9485 1.7296 59.7749 2.73772 59.795L10.7514 59.9541C11.5736 59.9705 12.2767 59.4581 12.5306 58.734C11.0966 57.1266 8.58364 58.0504 7.23238 56.209Z" fill="white"/>
<path d="M9.23335 58.0303L3.90017 57.9345C3.262 57.923 2.75088 57.3976 2.75788 56.7608L2.8158 51.4732C2.82275 50.8364 3.34519 50.3253 3.98346 50.3316L9.31724 50.3843C9.96364 50.3907 10.4825 50.9163 10.4755 51.5583L10.417 56.889C10.41 57.531 9.87966 58.0419 9.23335 58.0303Z" fill="url(#paint23_linear_250_1607)"/>
<path d="M9.38922 57.8765L4.12469 57.7829C3.4945 57.7717 2.9898 57.2568 2.99665 56.6327L3.05343 51.4504C3.06028 50.8263 3.57612 50.3256 4.20636 50.332L9.47148 50.3853C10.1094 50.3918 10.6214 50.9069 10.6145 51.5358L10.5572 56.7584C10.5503 57.3872 10.027 57.8878 9.38922 57.8765Z" fill="url(#paint24_linear_250_1607)"/>
<path opacity="0.48" d="M7.23166 56.2091C6.26682 54.8943 7.26247 54.0314 6.23631 52.5467C5.4311 51.3816 4.28645 51.1461 3.37966 50.6724C3.18103 50.8733 3.05673 51.147 3.05343 51.4505L2.99665 56.6328C2.9898 57.2569 3.4945 57.7719 4.12469 57.783L9.38922 57.8766C9.67425 57.8817 9.93596 57.784 10.1394 57.6187C9.06717 57.3981 7.97433 57.2212 7.23166 56.2091Z" fill="white"/>
<path d="M63.2252 118.842L53.4382 118.649C52.207 118.625 51.2216 117.614 51.235 116.393L51.3404 106.769C51.3537 105.547 52.361 104.565 53.5924 104.575L63.381 104.652C64.6353 104.662 65.643 105.673 65.6294 106.909L65.5225 116.648C65.5089 117.885 64.4793 118.867 63.2252 118.842Z" fill="url(#paint25_linear_250_1607)"/>
<path d="M63.5552 118.908L53.7495 118.714C52.516 118.689 51.5287 117.678 51.5421 116.455L51.6476 106.823C51.661 105.6 52.6701 104.616 53.9038 104.626L63.7111 104.705C64.9678 104.715 65.9774 105.727 65.9638 106.964L65.8568 116.713C65.8432 117.95 64.8117 118.933 63.5552 118.908Z" fill="url(#paint26_linear_250_1607)"/>
<path opacity="0.48" d="M59.2511 114.326C58.0706 112.717 59.2888 111.661 58.0333 109.844C56.5353 107.677 54.0782 108.139 53.1406 106.207C52.9345 105.783 52.8476 105.334 52.8387 104.885C52.1388 105.254 51.6588 105.981 51.6496 106.822L51.5441 116.455C51.5307 117.678 52.5179 118.689 53.7515 118.713L63.5571 118.908C64.5631 118.928 65.4235 118.301 65.7342 117.415C63.9794 115.448 60.9045 116.579 59.2511 114.326Z" fill="white"/>
<path d="M61.699 116.554L55.1732 116.437C54.3923 116.423 53.767 115.78 53.7755 115.001L53.8464 108.531C53.8549 107.752 54.4941 107.126 55.2751 107.134L61.8016 107.199C62.5925 107.206 63.2275 107.85 63.2189 108.635L63.1473 115.158C63.1386 115.943 62.4898 116.568 61.699 116.554Z" fill="url(#paint27_linear_250_1607)"/>
<path d="M61.889 116.366L55.4473 116.252C54.6762 116.238 54.0586 115.608 54.067 114.844L54.1365 108.503C54.1448 107.739 54.776 107.127 55.5472 107.135L61.9896 107.2C62.7701 107.208 63.3967 107.838 63.3882 108.608L63.3181 114.998C63.3097 115.767 62.6694 116.38 61.889 116.366Z" fill="url(#paint28_linear_250_1607)"/>
<path opacity="0.48" d="M59.249 114.326C58.0684 112.717 59.2867 111.661 58.0311 109.844C57.0459 108.419 55.6453 108.131 54.5357 107.551C54.2927 107.797 54.1406 108.132 54.1365 108.503L54.067 114.844C54.0586 115.608 54.6762 116.238 55.4473 116.252L61.889 116.366C62.2378 116.372 62.558 116.253 62.807 116.051C61.4949 115.781 60.1577 115.564 59.249 114.326Z" fill="white"/>
<path d="M130.158 65.7572L122.159 65.5993C121.153 65.5794 120.348 64.7539 120.359 63.7553L120.445 55.8905C120.456 54.892 121.279 54.089 122.285 54.097L130.285 54.1606C131.31 54.1688 132.133 54.9946 132.122 56.0052L132.035 63.9643C132.024 64.9747 131.182 65.7774 130.158 65.7572Z" fill="url(#paint29_linear_250_1607)"/>
<path d="M130.429 65.8113L122.415 65.6521C121.407 65.6321 120.6 64.8057 120.611 63.8062L120.697 55.9341C120.708 54.9346 121.533 54.1309 122.541 54.139L130.556 54.2035C131.583 54.2118 132.408 55.0384 132.397 56.05L132.31 64.0168C132.299 65.0283 131.456 65.8317 130.429 65.8113Z" fill="url(#paint30_linear_250_1607)"/>
<path opacity="0.48" d="M126.91 62.0662C125.945 60.7514 126.94 59.8885 125.914 58.4038C124.69 56.6324 122.682 57.0099 121.916 55.4315C121.747 55.0845 121.676 54.7177 121.669 54.3503C121.097 54.6521 120.705 55.2467 120.697 55.9341L120.611 63.8062C120.6 64.8057 121.407 65.6321 122.415 65.6521L130.429 65.8113C131.251 65.8277 131.954 65.3153 132.208 64.5911C130.774 62.9837 128.261 63.9076 126.91 62.0662Z" fill="white"/>
<path d="M128.911 63.8875L123.577 63.7917C122.939 63.7802 122.428 63.2548 122.435 62.618L122.493 57.3303C122.5 56.6936 123.022 56.1825 123.661 56.1888L128.995 56.2416C129.641 56.248 130.16 56.7736 130.153 57.4155L130.094 62.7462C130.087 63.3881 129.557 63.899 128.911 63.8875Z" fill="url(#paint31_linear_250_1607)"/>
<path d="M129.066 63.7337L123.801 63.6401C123.171 63.6289 122.667 63.1139 122.673 62.4899L122.73 57.3076C122.737 56.6835 123.253 56.1827 123.883 56.1891L129.148 56.2425C129.786 56.249 130.298 56.7641 130.291 57.393L130.234 62.6155C130.227 63.2444 129.704 63.745 129.066 63.7337Z" fill="url(#paint32_linear_250_1607)"/>
<path opacity="0.48" d="M126.908 62.0661C125.944 60.7513 126.939 59.8884 125.913 58.4037C125.108 57.2387 123.963 57.0031 123.056 56.5294C122.858 56.7304 122.733 57.0041 122.73 57.3076L122.673 62.4899C122.667 63.1139 123.171 63.6289 123.801 63.6401L129.066 63.7337C129.351 63.7387 129.613 63.641 129.816 63.4758C128.744 63.2551 127.651 63.0782 126.908 62.0661Z" fill="white"/>
<path d="M37.4896 96.2985L23.5407 96.0231C21.786 95.9884 20.3815 94.5488 20.4006 92.8074L20.5508 79.0916C20.5698 77.3501 22.0054 75.9497 23.7605 75.9637L37.7116 76.0748C39.4993 76.089 40.9355 77.5292 40.9161 79.2915L40.7637 93.1717C40.7444 94.9339 39.277 96.3338 37.4896 96.2985Z" fill="url(#paint33_linear_250_1607)"/>
<path d="M37.9621 96.3928L23.9866 96.1152C22.2285 96.0803 20.8214 94.6391 20.8405 92.8961L20.9909 79.1675C21.0099 77.4244 22.4482 76.0228 24.2066 76.037L38.1843 76.1494C39.9754 76.1639 41.4145 77.6056 41.3951 79.3696L41.2425 93.2634C41.2232 95.0273 39.7529 96.4284 37.9621 96.3928Z" fill="url(#paint34_linear_250_1607)"/>
<path opacity="0.48" d="M31.8251 89.8615C30.1425 87.5686 31.8788 86.0637 30.0893 83.4745C27.9543 80.3853 24.4523 81.0437 23.1161 78.2911C22.8224 77.6858 22.6985 77.046 22.6857 76.4055C21.6882 76.9318 21.004 77.9686 20.9908 79.1675L20.8405 92.8961C20.8214 94.6391 22.2285 96.0803 23.9866 96.1152L37.9621 96.3928C39.3959 96.4213 40.6221 95.5277 41.0649 94.2649C38.564 91.4616 34.1817 93.0729 31.8251 89.8615Z" fill="white"/>
<path d="M35.316 93.0378L26.0152 92.8707C24.9022 92.8508 24.0109 91.9344 24.0231 90.8239L24.1241 81.6025C24.1363 80.492 25.0474 79.6006 26.1605 79.6117L35.4623 79.7037C36.5896 79.7149 37.4946 80.6315 37.4823 81.751L37.3802 91.0474C37.3679 92.1669 36.4431 93.058 35.316 93.0378Z" fill="url(#paint35_linear_250_1607)"/>
<path d="M35.5879 92.7696L26.4068 92.6064C25.3079 92.5869 24.4276 91.6888 24.4396 90.6005L24.5386 81.5628C24.5505 80.4744 25.4501 79.6011 26.5492 79.6123L35.7313 79.7053C36.8437 79.7166 37.7368 80.6149 37.7248 81.7117L37.6248 90.8195C37.6128 91.9163 36.7002 92.7893 35.5879 92.7696Z" fill="url(#paint36_linear_250_1607)"/>
<path opacity="0.48" d="M31.8252 89.8615C30.1426 87.5685 31.8789 86.0637 30.0894 83.4744C28.6852 81.4426 26.689 81.0318 25.1076 80.2057C24.7612 80.5562 24.5444 81.0334 24.5386 81.5628L24.4396 90.6005C24.4276 91.6888 25.3078 92.5869 26.4068 92.6064L35.5879 92.7696C36.085 92.7784 36.5414 92.608 36.8962 92.3199C35.0262 91.935 33.1204 91.6264 31.8252 89.8615Z" fill="white"/>
<defs>
<linearGradient id="paint0_linear_250_1607" x1="99.5539" y1="21.5455" x2="84.7754" y2="35.7646" gradientUnits="userSpaceOnUse">
<stop stop-color="#AA80F9"/>
<stop offset="0.9964" stop-color="#6165D7"/>
</linearGradient>
<linearGradient id="paint1_linear_250_1607" x1="55.5861" y1="24.7821" x2="105.797" y2="106.988" gradientUnits="userSpaceOnUse">
<stop stop-color="#AA80F9"/>
<stop offset="0.9964" stop-color="#6165D7"/>
</linearGradient>
<linearGradient id="paint2_linear_250_1607" x1="82.2497" y1="71.5611" x2="41.4777" y2="-10.5066" gradientUnits="userSpaceOnUse">
<stop stop-color="#AA80F9"/>
<stop offset="0.9964" stop-color="#6165D7"/>
</linearGradient>
<linearGradient id="paint3_linear_250_1607" x1="51.6118" y1="55.6465" x2="91.0437" y2="55.6465" gradientUnits="userSpaceOnUse">
<stop offset="0.0036" stop-color="#26264F"/>
<stop offset="1" stop-color="#444B8C"/>
</linearGradient>
<linearGradient id="paint4_linear_250_1607" x1="77.6626" y1="85.8042" x2="66.3" y2="23.8147" gradientUnits="userSpaceOnUse">
<stop stop-color="#AA80F9"/>
<stop offset="0.9964" stop-color="#6165D7"/>
</linearGradient>
<linearGradient id="paint5_linear_250_1607" x1="21.7676" y1="15.6579" x2="40.4761" y2="15.6579" gradientUnits="userSpaceOnUse">
<stop stop-color="#444B8C"/>
<stop offset="0.9964" stop-color="#26264F"/>
</linearGradient>
<linearGradient id="paint6_linear_250_1607" x1="22.1685" y1="15.7343" x2="40.9127" y2="15.7343" gradientUnits="userSpaceOnUse">
<stop stop-color="#AA80F9"/>
<stop offset="0.9964" stop-color="#6165D7"/>
</linearGradient>
<linearGradient id="paint7_linear_250_1607" x1="25.0713" y1="15.8344" x2="37.345" y2="15.8344" gradientUnits="userSpaceOnUse">
<stop stop-color="#444B8C"/>
<stop offset="0.9964" stop-color="#26264F"/>
</linearGradient>
<linearGradient id="paint8_linear_250_1607" x1="33.5861" y1="26.5744" x2="29.9974" y2="7.72096" gradientUnits="userSpaceOnUse">
<stop offset="0.0036" stop-color="#E38DDD"/>
<stop offset="1" stop-color="#9571F6"/>
</linearGradient>
<linearGradient id="paint9_linear_250_1607" x1="89.5747" y1="98.2267" x2="114.989" y2="98.2267" gradientUnits="userSpaceOnUse">
<stop stop-color="#444B8C"/>
<stop offset="0.9964" stop-color="#26264F"/>
</linearGradient>
<linearGradient id="paint10_linear_250_1607" x1="90.1182" y1="98.3305" x2="115.581" y2="98.3305" gradientUnits="userSpaceOnUse">
<stop stop-color="#AA80F9"/>
<stop offset="0.9964" stop-color="#6165D7"/>
</linearGradient>
<linearGradient id="paint11_linear_250_1607" x1="94.0606" y1="98.4664" x2="110.734" y2="98.4664" gradientUnits="userSpaceOnUse">
<stop stop-color="#444B8C"/>
<stop offset="0.9964" stop-color="#26264F"/>
</linearGradient>
<linearGradient id="paint12_linear_250_1607" x1="105.628" y1="113.056" x2="100.753" y2="87.4448" gradientUnits="userSpaceOnUse">
<stop offset="0.0036" stop-color="#E38DDD"/>
<stop offset="1" stop-color="#9571F6"/>
</linearGradient>
<linearGradient id="paint13_linear_250_1607" x1="105.085" y1="29.2876" x2="125.601" y2="29.2876" gradientUnits="userSpaceOnUse">
<stop stop-color="#444B8C"/>
<stop offset="0.9964" stop-color="#26264F"/>
</linearGradient>
<linearGradient id="paint14_linear_250_1607" x1="105.525" y1="29.3714" x2="126.08" y2="29.3714" gradientUnits="userSpaceOnUse">
<stop stop-color="#AA80F9"/>
<stop offset="0.9964" stop-color="#6165D7"/>
</linearGradient>
<linearGradient id="paint15_linear_250_1607" x1="108.708" y1="29.4811" x2="122.167" y2="29.4811" gradientUnits="userSpaceOnUse">
<stop stop-color="#444B8C"/>
<stop offset="0.9964" stop-color="#26264F"/>
</linearGradient>
<linearGradient id="paint16_linear_250_1607" x1="118.045" y1="41.2586" x2="114.11" y2="20.5837" gradientUnits="userSpaceOnUse">
<stop offset="0.0036" stop-color="#E38DDD"/>
<stop offset="1" stop-color="#9571F6"/>
</linearGradient>
<linearGradient id="paint17_linear_250_1607" x1="72.0073" y1="6.45021" x2="83.7714" y2="6.45021" gradientUnits="userSpaceOnUse">
<stop stop-color="#444B8C"/>
<stop offset="0.9964" stop-color="#26264F"/>
</linearGradient>
<linearGradient id="paint18_linear_250_1607" x1="72.2598" y1="6.49823" x2="84.0462" y2="6.49823" gradientUnits="userSpaceOnUse">
<stop stop-color="#AA80F9"/>
<stop offset="0.9964" stop-color="#6165D7"/>
</linearGradient>
<linearGradient id="paint19_linear_250_1607" x1="74.0839" y1="6.56111" x2="81.8017" y2="6.56111" gradientUnits="userSpaceOnUse">
<stop stop-color="#444B8C"/>
<stop offset="0.9964" stop-color="#26264F"/>
</linearGradient>
<linearGradient id="paint20_linear_250_1607" x1="79.4378" y1="13.3145" x2="77.1812" y2="1.4593" gradientUnits="userSpaceOnUse">
<stop offset="0.0036" stop-color="#E38DDD"/>
<stop offset="1" stop-color="#9571F6"/>
</linearGradient>
<linearGradient id="paint21_linear_250_1607" x1="0.681641" y1="54.0701" x2="12.4457" y2="54.0701" gradientUnits="userSpaceOnUse">
<stop stop-color="#444B8C"/>
<stop offset="0.9964" stop-color="#26264F"/>
</linearGradient>
<linearGradient id="paint22_linear_250_1607" x1="0.93363" y1="54.1181" x2="12.7201" y2="54.1181" gradientUnits="userSpaceOnUse">
<stop stop-color="#AA80F9"/>
<stop offset="0.9964" stop-color="#6165D7"/>
</linearGradient>
<linearGradient id="paint23_linear_250_1607" x1="2.75779" y1="54.181" x2="10.4756" y2="54.181" gradientUnits="userSpaceOnUse">
<stop stop-color="#444B8C"/>
<stop offset="0.9964" stop-color="#26264F"/>
</linearGradient>
<linearGradient id="paint24_linear_250_1607" x1="8.11215" y1="60.9344" x2="5.8555" y2="49.0792" gradientUnits="userSpaceOnUse">
<stop offset="0.0036" stop-color="#E38DDD"/>
<stop offset="1" stop-color="#9571F6"/>
</linearGradient>
<linearGradient id="paint25_linear_250_1607" x1="51.2349" y1="111.709" x2="65.6295" y2="111.709" gradientUnits="userSpaceOnUse">
<stop stop-color="#444B8C"/>
<stop offset="0.9964" stop-color="#26264F"/>
</linearGradient>
<linearGradient id="paint26_linear_250_1607" x1="51.542" y1="111.767" x2="65.964" y2="111.767" gradientUnits="userSpaceOnUse">
<stop stop-color="#AA80F9"/>
<stop offset="0.9964" stop-color="#6165D7"/>
</linearGradient>
<linearGradient id="paint27_linear_250_1607" x1="53.7754" y1="111.844" x2="63.219" y2="111.844" gradientUnits="userSpaceOnUse">
<stop stop-color="#444B8C"/>
<stop offset="0.9964" stop-color="#26264F"/>
</linearGradient>
<linearGradient id="paint28_linear_250_1607" x1="60.3264" y1="120.108" x2="57.5651" y2="105.602" gradientUnits="userSpaceOnUse">
<stop offset="0.0036" stop-color="#E38DDD"/>
<stop offset="1" stop-color="#9571F6"/>
</linearGradient>
<linearGradient id="paint29_linear_250_1607" x1="120.358" y1="59.9272" x2="132.122" y2="59.9272" gradientUnits="userSpaceOnUse">
<stop stop-color="#444B8C"/>
<stop offset="0.9964" stop-color="#26264F"/>
</linearGradient>
<linearGradient id="paint30_linear_250_1607" x1="120.611" y1="59.9753" x2="132.397" y2="59.9753" gradientUnits="userSpaceOnUse">
<stop stop-color="#AA80F9"/>
<stop offset="0.9964" stop-color="#6165D7"/>
</linearGradient>
<linearGradient id="paint31_linear_250_1607" x1="122.435" y1="60.0381" x2="130.153" y2="60.0381" gradientUnits="userSpaceOnUse">
<stop stop-color="#444B8C"/>
<stop offset="0.9964" stop-color="#26264F"/>
</linearGradient>
<linearGradient id="paint32_linear_250_1607" x1="127.789" y1="66.7916" x2="125.532" y2="54.9364" gradientUnits="userSpaceOnUse">
<stop offset="0.0036" stop-color="#E38DDD"/>
<stop offset="1" stop-color="#9571F6"/>
</linearGradient>
<linearGradient id="paint33_linear_250_1607" x1="20.4004" y1="86.1314" x2="40.9164" y2="86.1314" gradientUnits="userSpaceOnUse">
<stop stop-color="#444B8C"/>
<stop offset="0.9964" stop-color="#26264F"/>
</linearGradient>
<linearGradient id="paint34_linear_250_1607" x1="20.8403" y1="86.2152" x2="41.3953" y2="86.2152" gradientUnits="userSpaceOnUse">
<stop stop-color="#AA80F9"/>
<stop offset="0.9964" stop-color="#6165D7"/>
</linearGradient>
<linearGradient id="paint35_linear_250_1607" x1="24.0229" y1="86.3248" x2="37.4824" y2="86.3248" gradientUnits="userSpaceOnUse">
<stop stop-color="#444B8C"/>
<stop offset="0.9964" stop-color="#26264F"/>
</linearGradient>
<linearGradient id="paint36_linear_250_1607" x1="33.3608" y1="98.1024" x2="29.4254" y2="77.4275" gradientUnits="userSpaceOnUse">
<stop offset="0.0036" stop-color="#E38DDD"/>
<stop offset="1" stop-color="#9571F6"/>
</linearGradient>
</defs>
</svg>
