<svg width="172" height="172" viewBox="0 0 172 172" fill="none" xmlns="http://www.w3.org/2000/svg">
<path opacity="0.4" d="M116.028 14.3334H55.9716C29.8849 14.3334 14.3333 29.885 14.3333 55.9717V115.957C14.3333 142.115 29.8849 157.667 55.9716 157.667H115.957C142.043 157.667 157.595 142.115 157.595 116.028V55.9717C157.667 29.885 142.115 14.3334 116.028 14.3334Z" fill="#17C800"/>
<path d="M75.8233 111.657C74.39 111.657 73.0283 111.083 72.025 110.08L51.7433 89.7982C49.665 87.7198 49.665 84.2798 51.7433 82.2015C53.8217 80.1232 57.2617 80.1232 59.34 82.2015L75.8233 98.6848L112.66 61.8482C114.738 59.7698 118.178 59.7698 120.257 61.8482C122.335 63.9265 122.335 67.3665 120.257 69.4448L79.6217 110.08C78.6183 111.083 77.2567 111.657 75.8233 111.657Z" fill="#17C800"/>
</svg>
