<svg width="121" height="119" viewBox="0 0 121 119" fill="none" xmlns="http://www.w3.org/2000/svg">
<path d="M66.3618 31.9269H57.5703V42.4419H66.3618V31.9269Z" fill="#767285"/>
<path d="M68.4241 28.7405H55.5059V31.9268H68.4241V28.7405Z" fill="#EAF7D6"/>
<path d="M86.2947 40.6654L78.9907 35.7771L73.1321 44.513L80.436 49.4013L86.2947 40.6654Z" fill="#767285"/>
<path d="M89.7837 39.1657L79.0513 31.9828L77.2759 34.63L88.0084 41.813L89.7837 39.1657Z" fill="#EAF7D6"/>
<path d="M43.4881 49.401L50.792 44.5127L44.9334 35.7768L37.6294 40.6651L43.4881 49.401Z" fill="#767285"/>
<path d="M35.917 41.8122L46.6494 34.6293L44.8741 31.9821L34.1416 39.165L35.917 41.8122Z" fill="#EAF7D6"/>
<path d="M86.5755 94.3227C100.168 80.7441 100.168 58.7288 86.5755 45.1502C72.983 31.5717 50.9454 31.5717 37.353 45.1503C23.7605 58.7288 23.7605 80.7441 37.353 94.3226C50.9454 107.901 72.983 107.901 86.5755 94.3227Z" fill="#C2D89F"/>
<path d="M61.9667 44.7722C62.7595 44.7722 63.4022 44.1302 63.4022 43.3382C63.4022 42.5462 62.7595 41.9042 61.9667 41.9042C61.1739 41.9042 60.5312 42.5462 60.5312 43.3382C60.5312 44.1302 61.1739 44.7722 61.9667 44.7722Z" fill="#968FB0"/>
<path d="M63.4022 96.1349C63.4022 96.9269 62.7595 97.5689 61.9667 97.5689C61.174 97.5689 60.5312 96.9269 60.5312 96.1349C60.5312 95.343 61.174 94.7009 61.9667 94.7009C62.7595 94.7012 63.4022 95.343 63.4022 96.1349Z" fill="#968FB0"/>
<path d="M88.3886 71.1706C89.1814 71.1706 89.824 70.5286 89.824 69.7366C89.824 68.9446 89.1814 68.3026 88.3886 68.3026C87.5958 68.3026 86.9531 68.9446 86.9531 69.7366C86.9531 70.5286 87.5958 71.1706 88.3886 71.1706Z" fill="#968FB0"/>
<path d="M35.538 71.1706C36.3308 71.1706 36.9735 70.5286 36.9735 69.7366C36.9735 68.9446 36.3308 68.3026 35.538 68.3026C34.7452 68.3026 34.1025 68.9446 34.1025 69.7366C34.1025 70.5286 34.7452 71.1706 35.538 71.1706Z" fill="#968FB0"/>
<path fill-rule="evenodd" clip-rule="evenodd" d="M82.1583 49.5643C82.4303 49.836 82.4303 50.2766 82.1583 50.5483L79.17 53.5335C78.898 53.8053 78.457 53.8053 78.185 53.5335C77.913 53.2618 77.913 52.8212 78.185 52.5495L81.1732 49.5643C81.4452 49.2925 81.8863 49.2925 82.1583 49.5643Z" fill="#609F88"/>
<path fill-rule="evenodd" clip-rule="evenodd" d="M45.7462 85.9396C46.0182 86.2114 46.0182 86.6519 45.7462 86.9237L42.7579 89.9089C42.4859 90.1806 42.0449 90.1806 41.7729 89.9089C41.5008 89.6372 41.5008 89.1966 41.7729 88.9249L44.7611 85.9396C45.0331 85.6679 45.4741 85.6679 45.7462 85.9396Z" fill="#609F88"/>
<path fill-rule="evenodd" clip-rule="evenodd" d="M41.7729 49.5643C42.0449 49.2925 42.4859 49.2925 42.7579 49.5643L45.7462 52.5495C46.0182 52.8212 46.0182 53.2618 45.7462 53.5335C45.4741 53.8053 45.0331 53.8053 44.7611 53.5335L41.7729 50.5483C41.5008 50.2766 41.5008 49.836 41.7729 49.5643Z" fill="#609F88"/>
<path fill-rule="evenodd" clip-rule="evenodd" d="M78.185 85.9396C78.457 85.6679 78.898 85.6679 79.17 85.9396L82.1583 88.9249C82.4303 89.1966 82.4303 89.6372 82.1583 89.9089C81.8863 90.1806 81.4452 90.1806 81.1732 89.9089L78.185 86.9237C77.913 86.6519 77.913 86.2114 78.185 85.9396Z" fill="#609F88"/>
<path d="M60.3797 68.0961L76.0955 56.3136L63.5259 71.4012C62.6463 72.4572 61.0416 72.5103 60.0938 71.5147C59.1462 70.5191 59.2799 68.9207 60.3797 68.0961Z" fill="#609F88"/>
<path d="M44.749 22.513H1.22497C0.687656 22.513 0.251953 22.0777 0.251953 21.541V21.3584C0.251953 20.8216 0.687656 20.3864 1.22497 20.3864H44.749C45.2863 20.3864 45.722 20.8216 45.722 21.3584V21.541C45.722 22.0777 45.2863 22.513 44.749 22.513Z" fill="#767285"/>
<path d="M44.749 104.507H1.22497C0.687656 104.507 0.251953 104.072 0.251953 103.535V103.352C0.251953 102.816 0.687656 102.38 1.22497 102.38H44.749C45.2863 102.38 45.722 102.816 45.722 103.352V103.535C45.722 104.072 45.2863 104.507 44.749 104.507Z" fill="#767285"/>
<path d="M37.7352 77.9006C35.9408 75.0012 33.6015 73.0267 31.0165 70.8849C29.1057 69.302 24.3932 65.444 24.5232 62.4466C24.3932 59.4491 29.1057 55.5912 31.0165 54.0082C33.6018 51.8665 35.9408 49.8919 37.7352 46.9925C39.4635 44.1996 40.6152 41.0862 41.4203 37.9133C41.6581 36.9765 43.8394 22.5127 43.2524 22.5127C43.2518 22.5127 22.9858 22.5127 22.9858 22.5127C22.9858 22.5127 2.71976 22.5127 2.71913 22.5127C2.1318 22.5127 4.31346 36.9765 4.55129 37.9133C5.35663 41.0862 6.50802 44.1996 8.23636 46.9925C10.0308 49.8919 12.37 51.8665 14.955 54.0082C16.8658 55.5912 21.5783 59.4491 21.4484 62.4466C21.5783 65.444 16.8658 69.302 14.955 70.8849C12.3697 73.0264 10.0308 75.0012 8.23636 77.9006C6.50802 80.6935 5.35632 83.807 4.55129 86.9798C4.31346 87.9166 2.13211 102.38 2.71913 102.38C2.71976 102.38 22.9858 102.38 22.9858 102.38C22.9858 102.38 43.2518 102.38 43.2524 102.38C43.8397 102.38 41.6581 87.9166 41.4203 86.9798C40.6149 83.807 39.4635 80.6935 37.7352 77.9006Z" fill="#EAF7D6"/>
<path d="M30.5249 52.6764C32.9516 50.6255 35.1471 48.7342 36.8318 45.9574C38.4544 43.2826 39.535 40.3009 40.291 37.2622C40.3416 37.058 40.4873 36.1805 40.6751 34.9489C39.0546 34.8839 37.4093 35.0357 35.8043 35.2745C32.7874 35.7236 29.8001 36.4596 26.7515 36.5545C22.4073 36.6896 18.1406 35.5199 13.9522 34.3603C10.9161 33.5196 7.88032 32.679 4.84424 31.8386C5.22646 34.5617 5.59516 36.9103 5.68293 37.2622C6.43888 40.3009 7.51949 43.2826 9.14213 45.9574C10.8264 48.7342 13.0222 50.6252 15.449 52.6764C17.2427 54.1924 22.4693 57.8872 22.3472 60.7578V83.3466C9.65931 83.9491 6.37408 102.381 6.37408 102.381H22.9871H39.6001C39.6001 102.381 36.3149 83.9494 23.627 83.3466V60.7581C23.5046 57.8872 28.7311 54.1924 30.5249 52.6764Z" fill="#609F88"/>
<path d="M9.46136 86.9797C10.2667 83.8069 11.4181 80.6935 13.1464 77.9006C14.9408 75.0011 17.2801 73.0266 19.8651 70.8849C21.2238 69.7595 23.9972 67.4839 25.4408 65.1853C24.8541 64.251 24.4857 63.3129 24.5232 62.4465C24.4854 61.5804 24.8538 60.642 25.4408 59.7077C23.9972 57.4091 21.2238 55.1335 19.8651 54.0081C17.2798 51.8664 14.9408 49.8919 13.1464 46.9924C11.4181 44.1995 10.2664 41.0861 9.46136 37.9133C9.22353 36.9764 7.04219 22.5129 7.62921 22.5129C4.80139 22.5129 2.71913 22.5129 2.71913 22.5129C2.1318 22.5129 4.31346 36.9768 4.55129 37.9133C5.35663 41.0861 6.50802 44.1995 8.23636 46.9924C10.0308 49.8919 12.37 51.8664 14.955 54.0081C16.8658 55.5911 21.5783 59.449 21.4484 62.4465C21.5783 65.444 16.8658 69.3019 14.955 70.8849C12.3697 73.0263 10.0308 75.0011 8.23636 77.9006C6.50802 80.6935 5.35632 83.8069 4.55129 86.9797C4.31346 87.9166 2.13211 102.38 2.71913 102.38C2.71913 102.38 4.80139 102.38 7.62921 102.38C7.04187 102.38 9.22353 87.9166 9.46136 86.9797Z" fill="#EAF7D6"/>
<path opacity="0.5" d="M37.735 77.9006C35.9406 75.0011 33.6013 73.0266 31.0164 70.8849C29.1055 69.3019 24.393 65.444 24.523 62.4465C24.393 59.449 29.1052 55.5911 31.0164 54.0081C33.6016 51.8664 35.9406 49.8919 37.735 46.9924C39.4633 44.1995 40.615 41.0861 41.4201 37.9133C41.6579 36.9764 43.8392 22.5129 43.2522 22.5129C43.2522 22.5129 42.9637 22.5129 42.4604 22.5129C43.0477 22.5129 40.8661 36.9768 40.6282 37.9133C39.8229 41.0861 38.6715 44.1995 36.9432 46.9924C35.1488 49.8919 32.8095 51.8664 30.2245 54.0081C28.3137 55.5911 23.6012 59.449 23.7311 62.4465C23.6012 65.444 28.3134 69.3019 30.2245 70.8849C32.8098 73.0263 35.1488 75.0011 36.9432 77.9006C38.6715 80.6935 39.8232 83.8069 40.6282 86.9797C40.8661 87.9166 43.0474 102.38 42.4604 102.38C42.9637 102.38 43.2522 102.38 43.2522 102.38C43.8395 102.38 41.6579 87.9166 41.4201 86.9797C40.6147 83.8069 39.4633 80.6935 37.735 77.9006Z" fill="#EAF7D6"/>
<path fill-rule="evenodd" clip-rule="evenodd" d="M109.758 44.0619C108.927 44.0619 108.253 44.7352 108.253 45.5653C108.253 46.3955 108.926 47.0688 109.758 47.0688C110.589 47.0688 111.263 46.3958 111.263 45.5653C111.263 44.7349 110.589 44.0619 109.758 44.0619ZM107.556 45.5653C107.556 44.3509 108.542 43.3661 109.758 43.3661C110.974 43.3661 111.959 44.3506 111.959 45.5653C111.959 46.7802 110.973 47.7646 109.758 47.7646C108.542 47.7646 107.556 46.7798 107.556 45.5653Z" fill="#EAF7D6"/>
<path fill-rule="evenodd" clip-rule="evenodd" d="M114.311 89.7648C113.48 89.7648 112.806 90.4381 112.806 91.2682C112.806 92.0984 113.48 92.7717 114.311 92.7717C115.142 92.7717 115.816 92.0987 115.816 91.2682C115.816 90.4381 115.142 89.7648 114.311 89.7648ZM112.11 91.2682C112.11 90.0538 113.096 89.069 114.311 89.069C115.527 89.069 116.513 90.0538 116.513 91.2682C116.513 92.483 115.527 93.4675 114.311 93.4675C113.096 93.4675 112.11 92.4827 112.11 91.2682Z" fill="#EAF7D6"/>
<path fill-rule="evenodd" clip-rule="evenodd" d="M11.8084 62.7674C10.9771 62.7674 10.3035 63.4406 10.3035 64.2708C10.3035 65.1009 10.9774 65.7742 11.8084 65.7742C12.6395 65.7742 13.3134 65.1012 13.3134 64.2708C13.3134 63.4406 12.6397 62.7674 11.8084 62.7674ZM9.60693 64.2708C9.60693 63.0564 10.5924 62.0715 11.8084 62.0715C13.0245 62.0715 14.0099 63.0564 14.0099 64.2708C14.0099 65.4856 13.0241 66.47 11.8084 66.47C10.5927 66.47 9.60693 65.4852 9.60693 64.2708Z" fill="#EAF7D6"/>
<path fill-rule="evenodd" clip-rule="evenodd" d="M55.5072 19.9463C54.6761 19.9463 54.0022 20.6193 54.0022 21.4497C54.0022 22.2799 54.6759 22.9532 55.5072 22.9532C56.3382 22.9532 57.0121 22.2802 57.0121 21.4497C57.0121 20.6193 56.3385 19.9463 55.5072 19.9463ZM53.3057 21.4497C53.3057 20.2349 54.2915 19.2505 55.5072 19.2505C56.7232 19.2505 57.7087 20.235 57.7087 21.4497C57.7087 22.6645 56.7228 23.649 55.5072 23.649C54.2911 23.649 53.3057 22.6642 53.3057 21.4497Z" fill="#EAF7D6"/>
<path fill-rule="evenodd" clip-rule="evenodd" d="M90.9365 28.3335C90.4051 28.3336 89.9744 28.7639 89.9744 29.2948C89.9744 29.8258 90.4051 30.2562 90.9367 30.2562C91.4682 30.2562 91.899 29.8258 91.899 29.2948C91.899 28.7643 91.4683 28.3338 90.9367 28.3335M89.2778 29.2948C89.2778 28.3796 90.0205 27.6377 90.9367 27.6377H90.9368C91.8528 27.6381 92.5955 28.3798 92.5955 29.2948C92.5955 30.2101 91.8529 30.952 90.9367 30.952C90.0205 30.952 89.2778 30.2101 89.2778 29.2948Z" fill="#EAF7D6"/>
<path d="M120.057 52.6364L118.784 53.9085L117.511 52.6364L116.782 53.3642L118.055 54.6363L116.782 55.9085L117.511 56.6363L118.784 55.3642L120.057 56.6363L120.786 55.9085L119.513 54.6363L120.786 53.3642L120.057 52.6364Z" fill="#EAF7D6"/>
<path d="M103.985 96.3101L102.712 97.5822L101.438 96.3101L100.709 97.0379L101.983 98.31L100.709 99.5822L101.438 100.31L102.712 99.0379L103.985 100.31L104.714 99.5822L103.44 98.31L104.714 97.0379L103.985 96.3101Z" fill="#EAF7D6"/>
<path d="M98.7823 0.619873L97.5089 1.89202L96.2354 0.619873L95.5068 1.34772L96.7803 2.61987L95.5068 3.89202L96.2354 4.61986L97.5089 3.34771L98.7823 4.61986L99.5109 3.89202L98.2374 2.61987L99.5109 1.34772L98.7823 0.619873Z" fill="#EAF7D6"/>
<path d="M4.11386 53.8419L2.84041 55.1141L1.56696 53.8419L0.838379 54.5698L2.11183 55.8419L0.838379 57.1141L1.56696 57.8419L2.84041 56.5698L4.11386 57.8419L4.84244 57.1141L3.56899 55.8419L4.84244 54.5698L4.11386 53.8419Z" fill="#EAF7D6"/>
<path opacity="0.5" d="M70.4189 62.0503C70.4189 62.0503 74.9459 72.0983 90.7815 73.9516H73.3654L70.4189 62.0503Z" fill="#EAF7D6"/>
</svg>
